<svg xmlns="http://www.w3.org/2000/svg" xmlns:xlink="http://www.w3.org/1999/xlink" width="102.031" height="102.032" viewBox="0 0 102.031 102.032">
  <defs>
    <filter id="Trazado_874925" x="0" y="0" width="102.031" height="102.032" filterUnits="userSpaceOnUse">
      <feOffset dy="3" input="SourceAlpha"/>
      <feGaussianBlur stdDeviation="3" result="blur"/>
      <feFlood flood-opacity="0.161"/>
      <feComposite operator="in" in2="blur"/>
    </filter>
    <filter id="Trazado_874925-2" x="0" y="0" width="102.031" height="102.032" filterUnits="userSpaceOnUse">
      <feOffset dy="3" input="SourceAlpha"/>
      <feGaussianBlur stdDeviation="3" result="blur-2"/>
      <feFlood flood-opacity="0.161" result="color"/>
      <feComposite operator="out" in="SourceGraphic" in2="blur-2"/>
      <feComposite operator="in" in="color"/>
      <feComposite operator="in" in2="SourceGraphic"/>
    </filter>
    <clipPath id="clip-path">
      <rect id="Rectángulo_404405" data-name="Rectángulo 404405" width="51.552" height="45.877" fill="none"/>
    </clipPath>
  </defs>
  <g id="Grupo_1110668" data-name="Grupo 1110668" transform="translate(-801.5 -1953)">
    <g data-type="innerShadowGroup">
      <g transform="matrix(1, 0, 0, 1, 801.5, 1953)" filter="url(#Trazado_874925)">
        <g id="Trazado_874925-3" data-name="Trazado 874925" transform="translate(9 6)" fill="#f3d913">
          <path d="M 42.01562881469727 82.03167724609375 C 36.61266708374023 82.03167724609375 31.37239074707031 80.97395324707031 26.44035339355469 78.88787841796875 C 21.67556571960449 76.87253570556641 17.39591598510742 73.98699188232422 13.72030353546143 70.31138610839844 C 10.04470348358154 66.63577270507812 7.159141540527344 62.35614013671875 5.143803596496582 57.59135055541992 C 3.05772876739502 52.6593132019043 2.000003814697266 47.41903686523438 2.000003814697266 42.01609039306641 C 2.000003814697266 36.61265182495117 3.05772876739502 31.37237548828125 5.143803596496582 26.44033813476562 C 7.159141540527344 21.67555046081543 10.04470348358154 17.39591407775879 13.72030353546143 13.72030067443848 C 17.39591598510742 10.04468822479248 21.67556571960449 7.159138679504395 26.44035339355469 5.143801212310791 C 31.37239074707031 3.057726144790649 36.61267852783203 2.000001192092896 42.01562881469727 2.000001192092896 C 47.4185905456543 2.000001192092896 52.65886688232422 3.057726144790649 57.59090423583984 5.143801212310791 C 62.35570526123047 7.159138679504395 66.63533782958984 10.04468822479248 70.31095123291016 13.72030067443848 C 73.98656463623047 17.39591407775879 76.87211608886719 21.67555046081543 78.887451171875 26.44033813476562 C 80.97352600097656 31.37237548828125 82.03125 36.61265182495117 82.03125 42.01560211181641 C 82.03125 47.41903686523438 80.97352600097656 52.6593132019043 78.887451171875 57.59135055541992 C 76.87211608886719 62.35614013671875 73.98656463623047 66.63577270507812 70.31095123291016 70.31138610839844 C 66.63533782958984 73.98699188232422 62.35570526123047 76.87253570556641 57.59090423583984 78.88787841796875 C 52.65886688232422 80.97395324707031 47.4185905456543 82.03167724609375 42.01562881469727 82.03167724609375 Z" stroke="none"/>
          <path d="M 42.01562881469727 3.999992370605469 C 36.88178634643555 3.999992370605469 31.90362930297852 5.004570007324219 27.21945571899414 6.985809326171875 C 22.69305801391602 8.900306701660156 18.62709808349609 11.64192199707031 15.13451385498047 15.13451385498047 C 11.64194488525391 18.62708282470703 8.900314331054688 22.69303894042969 6.985816955566406 27.21944046020508 C 5.004570007324219 31.90361022949219 4 36.88176727294922 4 42.01608276367188 C 4 47.14992523193359 5.004570007324219 52.12806701660156 6.985816955566406 56.81224060058594 C 8.900314331054688 61.33863830566406 11.64194488525391 65.40459442138672 15.13451385498047 68.89717102050781 C 18.62709808349609 72.38975524902344 22.69305801391602 75.13136291503906 27.21945571899414 77.04586791992188 C 31.90362930297852 79.02710723876953 36.88178634643555 80.03168487548828 42.01562881469727 80.03168487548828 C 47.14947128295898 80.03168487548828 52.12761688232422 79.02710723876953 56.81179809570312 77.04586791992188 C 61.33819961547852 75.13136291503906 65.40415954589844 72.38975524902344 68.89674377441406 68.89717102050781 C 72.38931274414062 65.40459442138672 75.13094329833984 61.33863830566406 77.04544067382812 56.81224060058594 C 79.02668762207031 52.12806701660156 80.03125762939453 47.14992523193359 80.03125762939453 42.01559448242188 C 80.03125762939453 36.88176727294922 79.02668762207031 31.90361022949219 77.04544067382812 27.21944046020508 C 75.13094329833984 22.69303894042969 72.38931274414062 18.62708282470703 68.89674377441406 15.13451385498047 C 65.40415954589844 11.64192199707031 61.33819961547852 8.900306701660156 56.81179809570312 6.985809326171875 C 52.12761688232422 5.004570007324219 47.14947128295898 3.999992370605469 42.01562881469727 3.999992370605469 M 42.01562881469727 -7.62939453125e-06 C 65.22021484375 -7.62939453125e-06 84.03125762939453 18.81102752685547 84.03125762939453 42.01559448242188 L 84.03125762939453 42.01608276367188 C 84.03125762939453 65.22066497802734 65.22021484375 84.03168487548828 42.01562881469727 84.03168487548828 C 18.81102752685547 84.03168487548828 0 65.22066497802734 0 42.01608276367188 L 0 42.01559448242188 C 0 18.81102752685547 18.81102752685547 -7.62939453125e-06 42.01562881469727 -7.62939453125e-06 Z" stroke="none" fill="#fff"/>
        </g>
      </g>
      <g id="Trazado_874925-4" data-name="Trazado 874925" transform="translate(810.5 1959)" fill="#f3d913">
        <path d="M 42.01562881469727 82.03167724609375 C 36.61266708374023 82.03167724609375 31.37239074707031 80.97395324707031 26.44035339355469 78.88787841796875 C 21.67556571960449 76.87253570556641 17.39591598510742 73.98699188232422 13.72030353546143 70.31138610839844 C 10.04470348358154 66.63577270507812 7.159141540527344 62.35614013671875 5.143803596496582 57.59135055541992 C 3.05772876739502 52.6593132019043 2.000003814697266 47.41903686523438 2.000003814697266 42.01609039306641 C 2.000003814697266 36.61265182495117 3.05772876739502 31.37237548828125 5.143803596496582 26.44033813476562 C 7.159141540527344 21.67555046081543 10.04470348358154 17.39591407775879 13.72030353546143 13.72030067443848 C 17.39591598510742 10.04468822479248 21.67556571960449 7.159138679504395 26.44035339355469 5.143801212310791 C 31.37239074707031 3.057726144790649 36.61267852783203 2.000001192092896 42.01562881469727 2.000001192092896 C 47.4185905456543 2.000001192092896 52.65886688232422 3.057726144790649 57.59090423583984 5.143801212310791 C 62.35570526123047 7.159138679504395 66.63533782958984 10.04468822479248 70.31095123291016 13.72030067443848 C 73.98656463623047 17.39591407775879 76.87211608886719 21.67555046081543 78.887451171875 26.44033813476562 C 80.97352600097656 31.37237548828125 82.03125 36.61265182495117 82.03125 42.01560211181641 C 82.03125 47.41903686523438 80.97352600097656 52.6593132019043 78.887451171875 57.59135055541992 C 76.87211608886719 62.35614013671875 73.98656463623047 66.63577270507812 70.31095123291016 70.31138610839844 C 66.63533782958984 73.98699188232422 62.35570526123047 76.87253570556641 57.59090423583984 78.88787841796875 C 52.65886688232422 80.97395324707031 47.4185905456543 82.03167724609375 42.01562881469727 82.03167724609375 Z" stroke="none"/>
        <path d="M 42.01562881469727 3.999992370605469 C 36.88178634643555 3.999992370605469 31.90362930297852 5.004570007324219 27.21945571899414 6.985809326171875 C 22.69305801391602 8.900306701660156 18.62709808349609 11.64192199707031 15.13451385498047 15.13451385498047 C 11.64194488525391 18.62708282470703 8.900314331054688 22.69303894042969 6.985816955566406 27.21944046020508 C 5.004570007324219 31.90361022949219 4 36.88176727294922 4 42.01608276367188 C 4 47.14992523193359 5.004570007324219 52.12806701660156 6.985816955566406 56.81224060058594 C 8.900314331054688 61.33863830566406 11.64194488525391 65.40459442138672 15.13451385498047 68.89717102050781 C 18.62709808349609 72.38975524902344 22.69305801391602 75.13136291503906 27.21945571899414 77.04586791992188 C 31.90362930297852 79.02710723876953 36.88178634643555 80.03168487548828 42.01562881469727 80.03168487548828 C 47.14947128295898 80.03168487548828 52.12761688232422 79.02710723876953 56.81179809570312 77.04586791992188 C 61.33819961547852 75.13136291503906 65.40415954589844 72.38975524902344 68.89674377441406 68.89717102050781 C 72.38931274414062 65.40459442138672 75.13094329833984 61.33863830566406 77.04544067382812 56.81224060058594 C 79.02668762207031 52.12806701660156 80.03125762939453 47.14992523193359 80.03125762939453 42.01559448242188 C 80.03125762939453 36.88176727294922 79.02668762207031 31.90361022949219 77.04544067382812 27.21944046020508 C 75.13094329833984 22.69303894042969 72.38931274414062 18.62708282470703 68.89674377441406 15.13451385498047 C 65.40415954589844 11.64192199707031 61.33819961547852 8.900306701660156 56.81179809570312 6.985809326171875 C 52.12761688232422 5.004570007324219 47.14947128295898 3.999992370605469 42.01562881469727 3.999992370605469 M 42.01562881469727 -7.62939453125e-06 C 65.22021484375 -7.62939453125e-06 84.03125762939453 18.81102752685547 84.03125762939453 42.01559448242188 L 84.03125762939453 42.01608276367188 C 84.03125762939453 65.22066497802734 65.22021484375 84.03168487548828 42.01562881469727 84.03168487548828 C 18.81102752685547 84.03168487548828 0 65.22066497802734 0 42.01608276367188 L 0 42.01559448242188 C 0 18.81102752685547 18.81102752685547 -7.62939453125e-06 42.01562881469727 -7.62939453125e-06 Z" stroke="none"/>
      </g>
      <g transform="matrix(1, 0, 0, 1, 801.5, 1953)" filter="url(#Trazado_874925-2)">
        <g id="Trazado_874925-5" data-name="Trazado 874925" transform="translate(9 6)" fill="#fff">
          <path d="M 42.01562881469727 82.03167724609375 C 36.61266708374023 82.03167724609375 31.37239074707031 80.97395324707031 26.44035339355469 78.88787841796875 C 21.67556571960449 76.87253570556641 17.39591598510742 73.98699188232422 13.72030353546143 70.31138610839844 C 10.04470348358154 66.63577270507812 7.159141540527344 62.35614013671875 5.143803596496582 57.59135055541992 C 3.05772876739502 52.6593132019043 2.000003814697266 47.41903686523438 2.000003814697266 42.01609039306641 C 2.000003814697266 36.61265182495117 3.05772876739502 31.37237548828125 5.143803596496582 26.44033813476562 C 7.159141540527344 21.67555046081543 10.04470348358154 17.39591407775879 13.72030353546143 13.72030067443848 C 17.39591598510742 10.04468822479248 21.67556571960449 7.159138679504395 26.44035339355469 5.143801212310791 C 31.37239074707031 3.057726144790649 36.61267852783203 2.000001192092896 42.01562881469727 2.000001192092896 C 47.4185905456543 2.000001192092896 52.65886688232422 3.057726144790649 57.59090423583984 5.143801212310791 C 62.35570526123047 7.159138679504395 66.63533782958984 10.04468822479248 70.31095123291016 13.72030067443848 C 73.98656463623047 17.39591407775879 76.87211608886719 21.67555046081543 78.887451171875 26.44033813476562 C 80.97352600097656 31.37237548828125 82.03125 36.61265182495117 82.03125 42.01560211181641 C 82.03125 47.41903686523438 80.97352600097656 52.6593132019043 78.887451171875 57.59135055541992 C 76.87211608886719 62.35614013671875 73.98656463623047 66.63577270507812 70.31095123291016 70.31138610839844 C 66.63533782958984 73.98699188232422 62.35570526123047 76.87253570556641 57.59090423583984 78.88787841796875 C 52.65886688232422 80.97395324707031 47.4185905456543 82.03167724609375 42.01562881469727 82.03167724609375 Z" stroke="none"/>
          <path d="M 42.01562881469727 3.999992370605469 C 36.88178634643555 3.999992370605469 31.90362930297852 5.004570007324219 27.21945571899414 6.985809326171875 C 22.69305801391602 8.900306701660156 18.62709808349609 11.64192199707031 15.13451385498047 15.13451385498047 C 11.64194488525391 18.62708282470703 8.900314331054688 22.69303894042969 6.985816955566406 27.21944046020508 C 5.004570007324219 31.90361022949219 4 36.88176727294922 4 42.01608276367188 C 4 47.14992523193359 5.004570007324219 52.12806701660156 6.985816955566406 56.81224060058594 C 8.900314331054688 61.33863830566406 11.64194488525391 65.40459442138672 15.13451385498047 68.89717102050781 C 18.62709808349609 72.38975524902344 22.69305801391602 75.13136291503906 27.21945571899414 77.04586791992188 C 31.90362930297852 79.02710723876953 36.88178634643555 80.03168487548828 42.01562881469727 80.03168487548828 C 47.14947128295898 80.03168487548828 52.12761688232422 79.02710723876953 56.81179809570312 77.04586791992188 C 61.33819961547852 75.13136291503906 65.40415954589844 72.38975524902344 68.89674377441406 68.89717102050781 C 72.38931274414062 65.40459442138672 75.13094329833984 61.33863830566406 77.04544067382812 56.81224060058594 C 79.02668762207031 52.12806701660156 80.03125762939453 47.14992523193359 80.03125762939453 42.01559448242188 C 80.03125762939453 36.88176727294922 79.02668762207031 31.90361022949219 77.04544067382812 27.21944046020508 C 75.13094329833984 22.69303894042969 72.38931274414062 18.62708282470703 68.89674377441406 15.13451385498047 C 65.40415954589844 11.64192199707031 61.33819961547852 8.900306701660156 56.81179809570312 6.985809326171875 C 52.12761688232422 5.004570007324219 47.14947128295898 3.999992370605469 42.01562881469727 3.999992370605469 M 42.01562881469727 -7.62939453125e-06 C 65.22021484375 -7.62939453125e-06 84.03125762939453 18.81102752685547 84.03125762939453 42.01559448242188 L 84.03125762939453 42.01608276367188 C 84.03125762939453 65.22066497802734 65.22021484375 84.03168487548828 42.01562881469727 84.03168487548828 C 18.81102752685547 84.03168487548828 0 65.22066497802734 0 42.01608276367188 L 0 42.01559448242188 C 0 18.81102752685547 18.81102752685547 -7.62939453125e-06 42.01562881469727 -7.62939453125e-06 Z" stroke="none"/>
        </g>
      </g>
      <g id="Trazado_874925-6" data-name="Trazado 874925" transform="translate(810.5 1959)" fill="none">
        <path d="M 42.01562881469727 82.03167724609375 C 36.61266708374023 82.03167724609375 31.37239074707031 80.97395324707031 26.44035339355469 78.88787841796875 C 21.67556571960449 76.87253570556641 17.39591598510742 73.98699188232422 13.72030353546143 70.31138610839844 C 10.04470348358154 66.63577270507812 7.159141540527344 62.35614013671875 5.143803596496582 57.59135055541992 C 3.05772876739502 52.6593132019043 2.000003814697266 47.41903686523438 2.000003814697266 42.01609039306641 C 2.000003814697266 36.61265182495117 3.05772876739502 31.37237548828125 5.143803596496582 26.44033813476562 C 7.159141540527344 21.67555046081543 10.04470348358154 17.39591407775879 13.72030353546143 13.72030067443848 C 17.39591598510742 10.04468822479248 21.67556571960449 7.159138679504395 26.44035339355469 5.143801212310791 C 31.37239074707031 3.057726144790649 36.61267852783203 2.000001192092896 42.01562881469727 2.000001192092896 C 47.4185905456543 2.000001192092896 52.65886688232422 3.057726144790649 57.59090423583984 5.143801212310791 C 62.35570526123047 7.159138679504395 66.63533782958984 10.04468822479248 70.31095123291016 13.72030067443848 C 73.98656463623047 17.39591407775879 76.87211608886719 21.67555046081543 78.887451171875 26.44033813476562 C 80.97352600097656 31.37237548828125 82.03125 36.61265182495117 82.03125 42.01560211181641 C 82.03125 47.41903686523438 80.97352600097656 52.6593132019043 78.887451171875 57.59135055541992 C 76.87211608886719 62.35614013671875 73.98656463623047 66.63577270507812 70.31095123291016 70.31138610839844 C 66.63533782958984 73.98699188232422 62.35570526123047 76.87253570556641 57.59090423583984 78.88787841796875 C 52.65886688232422 80.97395324707031 47.4185905456543 82.03167724609375 42.01562881469727 82.03167724609375 Z" stroke="none"/>
        <path d="M 42.01562881469727 3.999992370605469 C 36.88178634643555 3.999992370605469 31.90362930297852 5.004570007324219 27.21945571899414 6.985809326171875 C 22.69305801391602 8.900306701660156 18.62709808349609 11.64192199707031 15.13451385498047 15.13451385498047 C 11.64194488525391 18.62708282470703 8.900314331054688 22.69303894042969 6.985816955566406 27.21944046020508 C 5.004570007324219 31.90361022949219 4 36.88176727294922 4 42.01608276367188 C 4 47.14992523193359 5.004570007324219 52.12806701660156 6.985816955566406 56.81224060058594 C 8.900314331054688 61.33863830566406 11.64194488525391 65.40459442138672 15.13451385498047 68.89717102050781 C 18.62709808349609 72.38975524902344 22.69305801391602 75.13136291503906 27.21945571899414 77.04586791992188 C 31.90362930297852 79.02710723876953 36.88178634643555 80.03168487548828 42.01562881469727 80.03168487548828 C 47.14947128295898 80.03168487548828 52.12761688232422 79.02710723876953 56.81179809570312 77.04586791992188 C 61.33819961547852 75.13136291503906 65.40415954589844 72.38975524902344 68.89674377441406 68.89717102050781 C 72.38931274414062 65.40459442138672 75.13094329833984 61.33863830566406 77.04544067382812 56.81224060058594 C 79.02668762207031 52.12806701660156 80.03125762939453 47.14992523193359 80.03125762939453 42.01559448242188 C 80.03125762939453 36.88176727294922 79.02668762207031 31.90361022949219 77.04544067382812 27.21944046020508 C 75.13094329833984 22.69303894042969 72.38931274414062 18.62708282470703 68.89674377441406 15.13451385498047 C 65.40415954589844 11.64192199707031 61.33819961547852 8.900306701660156 56.81179809570312 6.985809326171875 C 52.12761688232422 5.004570007324219 47.14947128295898 3.999992370605469 42.01562881469727 3.999992370605469 M 42.01562881469727 -7.62939453125e-06 C 65.22021484375 -7.62939453125e-06 84.03125762939453 18.81102752685547 84.03125762939453 42.01559448242188 L 84.03125762939453 42.01608276367188 C 84.03125762939453 65.22066497802734 65.22021484375 84.03168487548828 42.01562881469727 84.03168487548828 C 18.81102752685547 84.03168487548828 0 65.22066497802734 0 42.01608276367188 L 0 42.01559448242188 C 0 18.81102752685547 18.81102752685547 -7.62939453125e-06 42.01562881469727 -7.62939453125e-06 Z" stroke="none" fill="#fff"/>
      </g>
    </g>
    <g id="Grupo_1110719" data-name="Grupo 1110719" transform="translate(825.5 1978.782)">
      <g id="Grupo_1110718" data-name="Grupo 1110718" clip-path="url(#clip-path)">
        <path id="Trazado_900089" data-name="Trazado 900089" d="M28.453,86.454h0a5.142,5.142,0,0,1,.072-7.272L50.665,57.474l7.2,7.344L35.725,86.525a5.142,5.142,0,0,1-7.272-.072" transform="translate(-20.027 -42.66)" fill="#eba738"/>
        <path id="Trazado_900090" data-name="Trazado 900090" d="M34.065,85.493h0a3.786,3.786,0,0,1,.053-5.354l21.421-21,5.3,5.406-21.421,21a3.786,3.786,0,0,1-5.354-.053" transform="translate(-24.481 -43.894)" fill="#ffd04f"/>
        <rect id="Rectángulo_404403" data-name="Rectángulo 404403" width="14.969" height="10.285" transform="translate(17.218 27.971) rotate(-44.433)" fill="#eba738"/>
        <path id="Trazado_900091" data-name="Trazado 900091" d="M156.772,18.352l-1.542-1.542.014-5.085,7.68-4.368,3.334,3.4-4.271,7.624Z" transform="translate(-115.219 -5.46)" fill="#6e82a8"/>
        <path id="Trazado_900092" data-name="Trazado 900092" d="M161.258,17.349l4.168-7.441-2.5-2.552-7.68,4.368-.014,5.085.508.509Z" transform="translate(-115.219 -5.46)" fill="#93b6cc"/>
        <rect id="Rectángulo_404404" data-name="Rectángulo 404404" width="9.541" height="2.506" transform="matrix(0.714, -0.7, 0.7, 0.714, 33.607, 17.629)" fill="#6e82a8"/>
        <path id="Trazado_900093" data-name="Trazado 900093" d="M72.461,66.15l-28.1-28.1-6.188,6.188,28.1,28.1a4.375,4.375,0,0,0,6.188-6.188M68.79,70.1a1.628,1.628,0,1,1,1.628-1.628A1.628,1.628,0,0,1,68.79,70.1" transform="translate(-28.33 -28.239)" fill="#6e82a8"/>
        <path id="Trazado_900094" data-name="Trazado 900094" d="M76.884,66.906,49.336,39.358l-4,4L72.882,70.908a2.782,2.782,0,0,0,3.934,0l.069-.069a2.781,2.781,0,0,0,0-3.934m-2.775,4.168a1.628,1.628,0,1,1,1.628-1.628,1.628,1.628,0,0,1-1.628,1.628" transform="translate(-33.649 -29.213)" fill="#93b6cc"/>
        <path id="Trazado_900095" data-name="Trazado 900095" d="M17.441,5.047A10.236,10.236,0,0,0,8.78,2.006L14.045,7.27a3.39,3.39,0,0,1,0,4.794L12.008,14.1a3.389,3.389,0,0,1-4.793,0L2.007,8.892a10.26,10.26,0,0,0,3.062,8.527c3.857,3.857,9.753,4.214,13.17.8S21.3,8.9,17.441,5.047" transform="translate(-1.429 -1.414)" fill="#6e82a8"/>
        <path id="Trazado_900096" data-name="Trazado 900096" d="M21.092,6.248a8.912,8.912,0,0,0-7.646-2.642L18.3,8.457a3.39,3.39,0,0,1,0,4.794L16.26,15.287a3.389,3.389,0,0,1-4.793,0L7.654,11.474a9.236,9.236,0,0,0,2.7,5.513c3.361,3.361,8.489,3.681,11.455.715s2.645-8.094-.715-11.455" transform="translate(-5.681 -2.601)" fill="#93b6cc"/>
        <path id="Trazado_900097" data-name="Trazado 900097" d="M19.948,12.789A11.291,11.291,0,0,0,16.486,3.5,11.468,11.468,0,0,0,7.544.039a.665.665,0,0,0-.562.434.681.681,0,0,0,.162.709l4.789,4.772a2.915,2.915,0,0,1,.428,4.051l-2.341,2.35a2.916,2.916,0,0,1-4.054-.413L1.178,7.171a.68.68,0,0,0-.711-.158.664.664,0,0,0-.431.564,11.467,11.467,0,0,0,3.5,8.927,11.292,11.292,0,0,0,9.3,3.426L36.818,43.822c2.288,2.279,5.747,2.542,7.712.57s1.692-5.427-.6-7.709ZM43.657,43.521c-1.482,1.487-4.159,1.23-5.969-.573L13.511,18.863a.676.676,0,0,0-.587-.191,10,10,0,0,1-8.518-3.041A10.546,10.546,0,0,1,1.252,8.984L5.1,12.816c1.717,1.711,4.317,1.895,5.8.41l2.341-2.35c1.479-1.484,1.285-4.084-.432-5.795L8.958,1.249a10.542,10.542,0,0,1,6.658,3.129,10,10,0,0,1,3.074,8.5.68.68,0,0,0,.193.587L43.061,37.555c1.809,1.8,2.077,4.48.6,5.966" transform="translate(0 0)" fill="#00194b"/>
        <path id="Trazado_900098" data-name="Trazado 900098" d="M43.2,110.752l-9.577,9.323a4.514,4.514,0,1,1-6.3-6.47l9.448-9.2a.616.616,0,1,0-.86-.883l-9.448,9.2a5.747,5.747,0,0,0,8.017,8.236l9.578-9.323a.616.616,0,0,0-.86-.883" transform="translate(-18.354 -76.712)" fill="#00194b"/>
        <path id="Trazado_900099" data-name="Trazado 900099" d="M127.894,8.593l-2.835-2.909a1.046,1.046,0,0,0-1.274-.176l-7.245,4.187a1,1,0,0,0-.5.925l.237,4.369L110.3,20.8l-1.7-1.75a1.619,1.619,0,0,0-1.145-.493,1.6,1.6,0,0,0-1.157.462L103.442,21.8a.616.616,0,1,0,.86.883l2.852-2.776a.4.4,0,0,1,.559.007l5.746,5.9a.4.4,0,0,1-.007.559l-2.639,2.569a.616.616,0,1,0,.86.883l2.639-2.569a1.628,1.628,0,0,0,.031-2.3l-1.49-1.53,5.992-5.833,4.276.069a1,1,0,0,0,.9-.519l4.043-7.314a1.041,1.041,0,0,0-.167-1.238M123,16.429,118.8,16.36a1.078,1.078,0,0,0-.763.3l-6.041,5.88-.833-.857,6.028-5.868A1.069,1.069,0,0,0,117.51,15l-.233-4.3,7-4.045,2.639,2.708Z" transform="translate(-76.641 -3.983)" fill="#00194b"/>
        <path id="Trazado_900100" data-name="Trazado 900100" d="M49.607,112.686l-9.039,9.07a.616.616,0,0,0,.873.87l9.038-9.07a.616.616,0,1,0-.873-.87" transform="translate(-29.978 -83.505)" fill="#00194b"/>
        <path id="Trazado_900101" data-name="Trazado 900101" d="M50.314,131.977a.617.617,0,0,0,.872,0l9.094-9.126a.616.616,0,0,0-.873-.87l-9.095,9.126a.616.616,0,0,0,0,.871" transform="translate(-37.211 -90.404)" fill="#00194b"/>
        <path id="Trazado_900102" data-name="Trazado 900102" d="M150.737,147.69a2.164,2.164,0,1,0,2.164,2.164,2.167,2.167,0,0,0-2.164-2.164m0,3.1a.932.932,0,1,1,.932-.932.932.932,0,0,1-.932.932" transform="translate(-110.277 -109.622)" fill="#00194b"/>
      </g>
    </g>
  </g>
</svg>
