<svg xmlns="http://www.w3.org/2000/svg" xmlns:xlink="http://www.w3.org/1999/xlink" width="102.031" height="102.032" viewBox="0 0 102.031 102.032">
  <defs>
    <filter id="Trazado_874925" x="0" y="0" width="102.031" height="102.032" filterUnits="userSpaceOnUse">
      <feOffset dy="3" input="SourceAlpha"/>
      <feGaussianBlur stdDeviation="3" result="blur"/>
      <feFlood flood-opacity="0.161"/>
      <feComposite operator="in" in2="blur"/>
    </filter>
    <filter id="Trazado_874925-2" x="0" y="0" width="102.031" height="102.032" filterUnits="userSpaceOnUse">
      <feOffset dy="3" input="SourceAlpha"/>
      <feGaussianBlur stdDeviation="3" result="blur-2"/>
      <feFlood flood-opacity="0.161" result="color"/>
      <feComposite operator="out" in="SourceGraphic" in2="blur-2"/>
      <feComposite operator="in" in="color"/>
      <feComposite operator="in" in2="SourceGraphic"/>
    </filter>
    <clipPath id="clip-path">
      <rect id="Rectángulo_404412" data-name="Rectángulo 404412" width="45.564" height="61.485" fill="none"/>
    </clipPath>
  </defs>
  <g id="Grupo_1110675" data-name="Grupo 1110675" transform="translate(-801.5 -1953)">
    <g data-type="innerShadowGroup">
      <g transform="matrix(1, 0, 0, 1, 801.5, 1953)" filter="url(#Trazado_874925)">
        <g id="Trazado_874925-3" data-name="Trazado 874925" transform="translate(9 6)" fill="#f3d913">
          <path d="M 42.01562881469727 82.03167724609375 C 36.61266708374023 82.03167724609375 31.37239074707031 80.97395324707031 26.44035339355469 78.88787841796875 C 21.67556571960449 76.87253570556641 17.39591598510742 73.98699188232422 13.72030353546143 70.31138610839844 C 10.04470348358154 66.63577270507812 7.159141540527344 62.35614013671875 5.143803596496582 57.59135055541992 C 3.05772876739502 52.6593132019043 2.000003814697266 47.41903686523438 2.000003814697266 42.01609039306641 C 2.000003814697266 36.61265182495117 3.05772876739502 31.37237548828125 5.143803596496582 26.44033813476562 C 7.159141540527344 21.67555046081543 10.04470348358154 17.39591407775879 13.72030353546143 13.72030067443848 C 17.39591598510742 10.04468822479248 21.67556571960449 7.159138679504395 26.44035339355469 5.143801212310791 C 31.37239074707031 3.057726144790649 36.61267852783203 2.000001192092896 42.01562881469727 2.000001192092896 C 47.4185905456543 2.000001192092896 52.65886688232422 3.057726144790649 57.59090423583984 5.143801212310791 C 62.35570526123047 7.159138679504395 66.63533782958984 10.04468822479248 70.31095123291016 13.72030067443848 C 73.98656463623047 17.39591407775879 76.87211608886719 21.67555046081543 78.887451171875 26.44033813476562 C 80.97352600097656 31.37237548828125 82.03125 36.61265182495117 82.03125 42.01560211181641 C 82.03125 47.41903686523438 80.97352600097656 52.6593132019043 78.887451171875 57.59135055541992 C 76.87211608886719 62.35614013671875 73.98656463623047 66.63577270507812 70.31095123291016 70.31138610839844 C 66.63533782958984 73.98699188232422 62.35570526123047 76.87253570556641 57.59090423583984 78.88787841796875 C 52.65886688232422 80.97395324707031 47.4185905456543 82.03167724609375 42.01562881469727 82.03167724609375 Z" stroke="none"/>
          <path d="M 42.01562881469727 3.999992370605469 C 36.88178634643555 3.999992370605469 31.90362930297852 5.004570007324219 27.21945571899414 6.985809326171875 C 22.69305801391602 8.900306701660156 18.62709808349609 11.64192199707031 15.13451385498047 15.13451385498047 C 11.64194488525391 18.62708282470703 8.900314331054688 22.69303894042969 6.985816955566406 27.21944046020508 C 5.004570007324219 31.90361022949219 4 36.88176727294922 4 42.01608276367188 C 4 47.14992523193359 5.004570007324219 52.12806701660156 6.985816955566406 56.81224060058594 C 8.900314331054688 61.33863830566406 11.64194488525391 65.40459442138672 15.13451385498047 68.89717102050781 C 18.62709808349609 72.38975524902344 22.69305801391602 75.13136291503906 27.21945571899414 77.04586791992188 C 31.90362930297852 79.02710723876953 36.88178634643555 80.03168487548828 42.01562881469727 80.03168487548828 C 47.14947128295898 80.03168487548828 52.12761688232422 79.02710723876953 56.81179809570312 77.04586791992188 C 61.33819961547852 75.13136291503906 65.40415954589844 72.38975524902344 68.89674377441406 68.89717102050781 C 72.38931274414062 65.40459442138672 75.13094329833984 61.33863830566406 77.04544067382812 56.81224060058594 C 79.02668762207031 52.12806701660156 80.03125762939453 47.14992523193359 80.03125762939453 42.01559448242188 C 80.03125762939453 36.88176727294922 79.02668762207031 31.90361022949219 77.04544067382812 27.21944046020508 C 75.13094329833984 22.69303894042969 72.38931274414062 18.62708282470703 68.89674377441406 15.13451385498047 C 65.40415954589844 11.64192199707031 61.33819961547852 8.900306701660156 56.81179809570312 6.985809326171875 C 52.12761688232422 5.004570007324219 47.14947128295898 3.999992370605469 42.01562881469727 3.999992370605469 M 42.01562881469727 -7.62939453125e-06 C 65.22021484375 -7.62939453125e-06 84.03125762939453 18.81102752685547 84.03125762939453 42.01559448242188 L 84.03125762939453 42.01608276367188 C 84.03125762939453 65.22066497802734 65.22021484375 84.03168487548828 42.01562881469727 84.03168487548828 C 18.81102752685547 84.03168487548828 0 65.22066497802734 0 42.01608276367188 L 0 42.01559448242188 C 0 18.81102752685547 18.81102752685547 -7.62939453125e-06 42.01562881469727 -7.62939453125e-06 Z" stroke="none" fill="#fff"/>
        </g>
      </g>
      <g id="Trazado_874925-4" data-name="Trazado 874925" transform="translate(810.5 1959)" fill="#f3d913">
        <path d="M 42.01562881469727 82.03167724609375 C 36.61266708374023 82.03167724609375 31.37239074707031 80.97395324707031 26.44035339355469 78.88787841796875 C 21.67556571960449 76.87253570556641 17.39591598510742 73.98699188232422 13.72030353546143 70.31138610839844 C 10.04470348358154 66.63577270507812 7.159141540527344 62.35614013671875 5.143803596496582 57.59135055541992 C 3.05772876739502 52.6593132019043 2.000003814697266 47.41903686523438 2.000003814697266 42.01609039306641 C 2.000003814697266 36.61265182495117 3.05772876739502 31.37237548828125 5.143803596496582 26.44033813476562 C 7.159141540527344 21.67555046081543 10.04470348358154 17.39591407775879 13.72030353546143 13.72030067443848 C 17.39591598510742 10.04468822479248 21.67556571960449 7.159138679504395 26.44035339355469 5.143801212310791 C 31.37239074707031 3.057726144790649 36.61267852783203 2.000001192092896 42.01562881469727 2.000001192092896 C 47.4185905456543 2.000001192092896 52.65886688232422 3.057726144790649 57.59090423583984 5.143801212310791 C 62.35570526123047 7.159138679504395 66.63533782958984 10.04468822479248 70.31095123291016 13.72030067443848 C 73.98656463623047 17.39591407775879 76.87211608886719 21.67555046081543 78.887451171875 26.44033813476562 C 80.97352600097656 31.37237548828125 82.03125 36.61265182495117 82.03125 42.01560211181641 C 82.03125 47.41903686523438 80.97352600097656 52.6593132019043 78.887451171875 57.59135055541992 C 76.87211608886719 62.35614013671875 73.98656463623047 66.63577270507812 70.31095123291016 70.31138610839844 C 66.63533782958984 73.98699188232422 62.35570526123047 76.87253570556641 57.59090423583984 78.88787841796875 C 52.65886688232422 80.97395324707031 47.4185905456543 82.03167724609375 42.01562881469727 82.03167724609375 Z" stroke="none"/>
        <path d="M 42.01562881469727 3.999992370605469 C 36.88178634643555 3.999992370605469 31.90362930297852 5.004570007324219 27.21945571899414 6.985809326171875 C 22.69305801391602 8.900306701660156 18.62709808349609 11.64192199707031 15.13451385498047 15.13451385498047 C 11.64194488525391 18.62708282470703 8.900314331054688 22.69303894042969 6.985816955566406 27.21944046020508 C 5.004570007324219 31.90361022949219 4 36.88176727294922 4 42.01608276367188 C 4 47.14992523193359 5.004570007324219 52.12806701660156 6.985816955566406 56.81224060058594 C 8.900314331054688 61.33863830566406 11.64194488525391 65.40459442138672 15.13451385498047 68.89717102050781 C 18.62709808349609 72.38975524902344 22.69305801391602 75.13136291503906 27.21945571899414 77.04586791992188 C 31.90362930297852 79.02710723876953 36.88178634643555 80.03168487548828 42.01562881469727 80.03168487548828 C 47.14947128295898 80.03168487548828 52.12761688232422 79.02710723876953 56.81179809570312 77.04586791992188 C 61.33819961547852 75.13136291503906 65.40415954589844 72.38975524902344 68.89674377441406 68.89717102050781 C 72.38931274414062 65.40459442138672 75.13094329833984 61.33863830566406 77.04544067382812 56.81224060058594 C 79.02668762207031 52.12806701660156 80.03125762939453 47.14992523193359 80.03125762939453 42.01559448242188 C 80.03125762939453 36.88176727294922 79.02668762207031 31.90361022949219 77.04544067382812 27.21944046020508 C 75.13094329833984 22.69303894042969 72.38931274414062 18.62708282470703 68.89674377441406 15.13451385498047 C 65.40415954589844 11.64192199707031 61.33819961547852 8.900306701660156 56.81179809570312 6.985809326171875 C 52.12761688232422 5.004570007324219 47.14947128295898 3.999992370605469 42.01562881469727 3.999992370605469 M 42.01562881469727 -7.62939453125e-06 C 65.22021484375 -7.62939453125e-06 84.03125762939453 18.81102752685547 84.03125762939453 42.01559448242188 L 84.03125762939453 42.01608276367188 C 84.03125762939453 65.22066497802734 65.22021484375 84.03168487548828 42.01562881469727 84.03168487548828 C 18.81102752685547 84.03168487548828 0 65.22066497802734 0 42.01608276367188 L 0 42.01559448242188 C 0 18.81102752685547 18.81102752685547 -7.62939453125e-06 42.01562881469727 -7.62939453125e-06 Z" stroke="none"/>
      </g>
      <g transform="matrix(1, 0, 0, 1, 801.5, 1953)" filter="url(#Trazado_874925-2)">
        <g id="Trazado_874925-5" data-name="Trazado 874925" transform="translate(9 6)" fill="#fff">
          <path d="M 42.01562881469727 82.03167724609375 C 36.61266708374023 82.03167724609375 31.37239074707031 80.97395324707031 26.44035339355469 78.88787841796875 C 21.67556571960449 76.87253570556641 17.39591598510742 73.98699188232422 13.72030353546143 70.31138610839844 C 10.04470348358154 66.63577270507812 7.159141540527344 62.35614013671875 5.143803596496582 57.59135055541992 C 3.05772876739502 52.6593132019043 2.000003814697266 47.41903686523438 2.000003814697266 42.01609039306641 C 2.000003814697266 36.61265182495117 3.05772876739502 31.37237548828125 5.143803596496582 26.44033813476562 C 7.159141540527344 21.67555046081543 10.04470348358154 17.39591407775879 13.72030353546143 13.72030067443848 C 17.39591598510742 10.04468822479248 21.67556571960449 7.159138679504395 26.44035339355469 5.143801212310791 C 31.37239074707031 3.057726144790649 36.61267852783203 2.000001192092896 42.01562881469727 2.000001192092896 C 47.4185905456543 2.000001192092896 52.65886688232422 3.057726144790649 57.59090423583984 5.143801212310791 C 62.35570526123047 7.159138679504395 66.63533782958984 10.04468822479248 70.31095123291016 13.72030067443848 C 73.98656463623047 17.39591407775879 76.87211608886719 21.67555046081543 78.887451171875 26.44033813476562 C 80.97352600097656 31.37237548828125 82.03125 36.61265182495117 82.03125 42.01560211181641 C 82.03125 47.41903686523438 80.97352600097656 52.6593132019043 78.887451171875 57.59135055541992 C 76.87211608886719 62.35614013671875 73.98656463623047 66.63577270507812 70.31095123291016 70.31138610839844 C 66.63533782958984 73.98699188232422 62.35570526123047 76.87253570556641 57.59090423583984 78.88787841796875 C 52.65886688232422 80.97395324707031 47.4185905456543 82.03167724609375 42.01562881469727 82.03167724609375 Z" stroke="none"/>
          <path d="M 42.01562881469727 3.999992370605469 C 36.88178634643555 3.999992370605469 31.90362930297852 5.004570007324219 27.21945571899414 6.985809326171875 C 22.69305801391602 8.900306701660156 18.62709808349609 11.64192199707031 15.13451385498047 15.13451385498047 C 11.64194488525391 18.62708282470703 8.900314331054688 22.69303894042969 6.985816955566406 27.21944046020508 C 5.004570007324219 31.90361022949219 4 36.88176727294922 4 42.01608276367188 C 4 47.14992523193359 5.004570007324219 52.12806701660156 6.985816955566406 56.81224060058594 C 8.900314331054688 61.33863830566406 11.64194488525391 65.40459442138672 15.13451385498047 68.89717102050781 C 18.62709808349609 72.38975524902344 22.69305801391602 75.13136291503906 27.21945571899414 77.04586791992188 C 31.90362930297852 79.02710723876953 36.88178634643555 80.03168487548828 42.01562881469727 80.03168487548828 C 47.14947128295898 80.03168487548828 52.12761688232422 79.02710723876953 56.81179809570312 77.04586791992188 C 61.33819961547852 75.13136291503906 65.40415954589844 72.38975524902344 68.89674377441406 68.89717102050781 C 72.38931274414062 65.40459442138672 75.13094329833984 61.33863830566406 77.04544067382812 56.81224060058594 C 79.02668762207031 52.12806701660156 80.03125762939453 47.14992523193359 80.03125762939453 42.01559448242188 C 80.03125762939453 36.88176727294922 79.02668762207031 31.90361022949219 77.04544067382812 27.21944046020508 C 75.13094329833984 22.69303894042969 72.38931274414062 18.62708282470703 68.89674377441406 15.13451385498047 C 65.40415954589844 11.64192199707031 61.33819961547852 8.900306701660156 56.81179809570312 6.985809326171875 C 52.12761688232422 5.004570007324219 47.14947128295898 3.999992370605469 42.01562881469727 3.999992370605469 M 42.01562881469727 -7.62939453125e-06 C 65.22021484375 -7.62939453125e-06 84.03125762939453 18.81102752685547 84.03125762939453 42.01559448242188 L 84.03125762939453 42.01608276367188 C 84.03125762939453 65.22066497802734 65.22021484375 84.03168487548828 42.01562881469727 84.03168487548828 C 18.81102752685547 84.03168487548828 0 65.22066497802734 0 42.01608276367188 L 0 42.01559448242188 C 0 18.81102752685547 18.81102752685547 -7.62939453125e-06 42.01562881469727 -7.62939453125e-06 Z" stroke="none"/>
        </g>
      </g>
      <g id="Trazado_874925-6" data-name="Trazado 874925" transform="translate(810.5 1959)" fill="none">
        <path d="M 42.01562881469727 82.03167724609375 C 36.61266708374023 82.03167724609375 31.37239074707031 80.97395324707031 26.44035339355469 78.88787841796875 C 21.67556571960449 76.87253570556641 17.39591598510742 73.98699188232422 13.72030353546143 70.31138610839844 C 10.04470348358154 66.63577270507812 7.159141540527344 62.35614013671875 5.143803596496582 57.59135055541992 C 3.05772876739502 52.6593132019043 2.000003814697266 47.41903686523438 2.000003814697266 42.01609039306641 C 2.000003814697266 36.61265182495117 3.05772876739502 31.37237548828125 5.143803596496582 26.44033813476562 C 7.159141540527344 21.67555046081543 10.04470348358154 17.39591407775879 13.72030353546143 13.72030067443848 C 17.39591598510742 10.04468822479248 21.67556571960449 7.159138679504395 26.44035339355469 5.143801212310791 C 31.37239074707031 3.057726144790649 36.61267852783203 2.000001192092896 42.01562881469727 2.000001192092896 C 47.4185905456543 2.000001192092896 52.65886688232422 3.057726144790649 57.59090423583984 5.143801212310791 C 62.35570526123047 7.159138679504395 66.63533782958984 10.04468822479248 70.31095123291016 13.72030067443848 C 73.98656463623047 17.39591407775879 76.87211608886719 21.67555046081543 78.887451171875 26.44033813476562 C 80.97352600097656 31.37237548828125 82.03125 36.61265182495117 82.03125 42.01560211181641 C 82.03125 47.41903686523438 80.97352600097656 52.6593132019043 78.887451171875 57.59135055541992 C 76.87211608886719 62.35614013671875 73.98656463623047 66.63577270507812 70.31095123291016 70.31138610839844 C 66.63533782958984 73.98699188232422 62.35570526123047 76.87253570556641 57.59090423583984 78.88787841796875 C 52.65886688232422 80.97395324707031 47.4185905456543 82.03167724609375 42.01562881469727 82.03167724609375 Z" stroke="none"/>
        <path d="M 42.01562881469727 3.999992370605469 C 36.88178634643555 3.999992370605469 31.90362930297852 5.004570007324219 27.21945571899414 6.985809326171875 C 22.69305801391602 8.900306701660156 18.62709808349609 11.64192199707031 15.13451385498047 15.13451385498047 C 11.64194488525391 18.62708282470703 8.900314331054688 22.69303894042969 6.985816955566406 27.21944046020508 C 5.004570007324219 31.90361022949219 4 36.88176727294922 4 42.01608276367188 C 4 47.14992523193359 5.004570007324219 52.12806701660156 6.985816955566406 56.81224060058594 C 8.900314331054688 61.33863830566406 11.64194488525391 65.40459442138672 15.13451385498047 68.89717102050781 C 18.62709808349609 72.38975524902344 22.69305801391602 75.13136291503906 27.21945571899414 77.04586791992188 C 31.90362930297852 79.02710723876953 36.88178634643555 80.03168487548828 42.01562881469727 80.03168487548828 C 47.14947128295898 80.03168487548828 52.12761688232422 79.02710723876953 56.81179809570312 77.04586791992188 C 61.33819961547852 75.13136291503906 65.40415954589844 72.38975524902344 68.89674377441406 68.89717102050781 C 72.38931274414062 65.40459442138672 75.13094329833984 61.33863830566406 77.04544067382812 56.81224060058594 C 79.02668762207031 52.12806701660156 80.03125762939453 47.14992523193359 80.03125762939453 42.01559448242188 C 80.03125762939453 36.88176727294922 79.02668762207031 31.90361022949219 77.04544067382812 27.21944046020508 C 75.13094329833984 22.69303894042969 72.38931274414062 18.62708282470703 68.89674377441406 15.13451385498047 C 65.40415954589844 11.64192199707031 61.33819961547852 8.900306701660156 56.81179809570312 6.985809326171875 C 52.12761688232422 5.004570007324219 47.14947128295898 3.999992370605469 42.01562881469727 3.999992370605469 M 42.01562881469727 -7.62939453125e-06 C 65.22021484375 -7.62939453125e-06 84.03125762939453 18.81102752685547 84.03125762939453 42.01559448242188 L 84.03125762939453 42.01608276367188 C 84.03125762939453 65.22066497802734 65.22021484375 84.03168487548828 42.01562881469727 84.03168487548828 C 18.81102752685547 84.03168487548828 0 65.22066497802734 0 42.01608276367188 L 0 42.01559448242188 C 0 18.81102752685547 18.81102752685547 -7.62939453125e-06 42.01562881469727 -7.62939453125e-06 Z" stroke="none" fill="#fff"/>
      </g>
    </g>
    <g id="Grupo_1110726" data-name="Grupo 1110726" transform="translate(829.885 1969.17)">
      <path id="Trazado_900155" data-name="Trazado 900155" d="M54.952,139.958l-12.284-6.324H30.735L18.5,139.958v4.03H54.952Z" transform="translate(-13.662 -98.674)" fill="#cc2643"/>
      <path id="Trazado_900156" data-name="Trazado 900156" d="M51.52,139.958l-12.867-6.324H30.735L18.5,139.958v4.03H51.52Z" transform="translate(-13.662 -98.674)" fill="#ff3838"/>
      <path id="Trazado_900157" data-name="Trazado 900157" d="M77.458,121.408l-2.118,1.82H67.4l-1.857-1.7V110.977H77.458Z" transform="translate(-48.393 -81.944)" fill="#e88963"/>
      <path id="Trazado_900158" data-name="Trazado 900158" d="M75.5,121.145l-2.118,2.083H67.4l-1.857-1.7V110.977H75.5Z" transform="translate(-48.394 -81.944)" fill="#f5a978"/>
      <g id="Grupo_1110725" data-name="Grupo 1110725">
        <g id="Grupo_1110724" data-name="Grupo 1110724" clip-path="url(#clip-path)">
          <path id="Trazado_900159" data-name="Trazado 900159" d="M65.539,113.367a10.257,10.257,0,0,0,11.919-.26v-2.129H65.539Z" transform="translate(-48.393 -81.945)" fill="#e88963"/>
          <path id="Trazado_900160" data-name="Trazado 900160" d="M58.671,59.787h0A10.256,10.256,0,0,1,48.415,49.53V39.274H68.928V49.53A10.256,10.256,0,0,1,58.671,59.787" transform="translate(-35.749 -29)" fill="#e88963"/>
          <path id="Trazado_900161" data-name="Trazado 900161" d="M59.707,58.345h0A8.709,8.709,0,0,1,51,49.635V39.275H68.417v10.36a8.709,8.709,0,0,1-8.709,8.709" transform="translate(-37.657 -29)" fill="#f5a978"/>
          <path id="Trazado_900162" data-name="Trazado 900162" d="M48.415,42.276A14.361,14.361,0,0,0,58.671,46.24a14.361,14.361,0,0,0,10.256-3.963v-3H48.415Z" transform="translate(-35.749 -29)" fill="#e88963"/>
          <path id="Trazado_900163" data-name="Trazado 900163" d="M53.662,146.378H52.141V137.8l1.521-.927Z" transform="translate(-38.501 -101.065)" fill="#cc2643"/>
          <path id="Trazado_900164" data-name="Trazado 900164" d="M133.041,151.836H131.52v-7.573l1.521.783Z" transform="translate(-97.113 -106.523)" fill="#cc2643"/>
          <path id="Trazado_900165" data-name="Trazado 900165" d="M45.42,149.167H43.2V141.8l2.223-1.149Z" transform="translate(-31.897 -103.853)" fill="#70e5fa"/>
          <path id="Trazado_900166" data-name="Trazado 900166" d="M122.667,149.167h2.223V141.8l-2.223-1.149Z" transform="translate(-90.576 -103.853)" fill="#70e5fa"/>
          <path id="Trazado_900167" data-name="Trazado 900167" d="M48.1,39.274c1.02,2.484,5.244,4.346,10.3,4.346s9.281-1.862,10.3-4.346Z" transform="translate(-35.517 -29)" fill="#57c9f2"/>
          <path id="Trazado_900168" data-name="Trazado 900168" d="M59.373,2.007h-1.4a9.554,9.554,0,0,0-9.554,9.554H68.928a9.554,9.554,0,0,0-9.554-9.554" transform="translate(-35.749 -1.482)" fill="#57c9f2"/>
          <path id="Trazado_900169" data-name="Trazado 900169" d="M60.762,5.883H58.43a7.448,7.448,0,0,0-7.448,7.448H68.21a7.448,7.448,0,0,0-7.448-7.448" transform="translate(-37.645 -4.344)" fill="#70e5fa"/>
          <rect id="Rectángulo_404410" data-name="Rectángulo 404410" width="27.337" height="4.972" transform="translate(9.351 51.397)" fill="#6e82a8"/>
          <rect id="Rectángulo_404411" data-name="Rectángulo 404411" width="21.007" height="2.803" transform="translate(12.913 51.397)" fill="#93b6cc"/>
          <path id="Trazado_900170" data-name="Trazado 900170" d="M135.228,189.194a1.553,1.553,0,0,1-1.554-1.553V184.82a1.553,1.553,0,0,1,1.554-1.553h3.949a6.1,6.1,0,0,0-5.5-4.017c-3.365,0-6.094,3.156-6.094,7.049s2.729,7.049,6.094,7.049a6.123,6.123,0,0,0,5.556-4.153Z" transform="translate(-94.204 -132.357)" fill="#6e82a8"/>
          <path id="Trazado_900171" data-name="Trazado 900171" d="M138.908,189.771a1.553,1.553,0,0,1-1.554-1.553V185.4a1.553,1.553,0,0,1,1.554-1.553h3.252c-.766-2.242-2.534-3.812-4.594-3.812-2.762,0-5,2.822-5,6.3s2.239,6.3,5,6.3a4.848,4.848,0,0,0,4.189-2.866Z" transform="translate(-97.884 -132.933)" fill="#93b6cc"/>
          <path id="Trazado_900172" data-name="Trazado 900172" d="M7.655,179.249a6.1,6.1,0,0,0-5.5,4.017H6.1a1.553,1.553,0,0,1,1.553,1.553v2.821A1.553,1.553,0,0,1,6.1,189.193h-4a6.124,6.124,0,0,0,5.556,4.153c3.366,0,6.094-3.156,6.094-7.049s-2.728-7.049-6.094-7.049" transform="translate(-1.55 -132.356)" fill="#6e82a8"/>
          <path id="Trazado_900173" data-name="Trazado 900173" d="M9.562,180.031c-2.06,0-3.828,1.57-4.594,3.812H8.22A1.553,1.553,0,0,1,9.773,185.4v2.821a1.553,1.553,0,0,1-1.553,1.553H5.373a4.849,4.849,0,0,0,4.189,2.866c2.762,0,5-2.822,5-6.3s-2.239-6.3-5-6.3" transform="translate(-3.668 -132.933)" fill="#93b6cc"/>
          <path id="Trazado_900174" data-name="Trazado 900174" d="M17.087,44.29a.619.619,0,0,0,.619-.619A3.217,3.217,0,0,1,19.457,40.8l3.474-1.788v6.263a.619.619,0,0,0,.619.619l.02,0c.689,0,20.386,0,22.843,0l.02,0a.619.619,0,0,0,.619-.619V38.709L51.117,40.8a3.216,3.216,0,0,1,1.751,2.87.619.619,0,0,0,1.238,0A4.447,4.447,0,0,0,51.683,39.7l-9.846-5.068V29.168a10.859,10.859,0,0,0,4.168-8.55s0-10.872,0-10.872C45.931,4.361,41.084,0,35.133,0S24.334,4.361,24.26,9.746V20.618A10.864,10.864,0,0,0,28.737,29.4v5.23L18.891,39.7a4.448,4.448,0,0,0-2.422,3.971.618.618,0,0,0,.618.619m27.824-6.684.9.465v6.585l-.9,0ZM35.133,1.238c5.268,0,9.559,3.806,9.631,8.508H25.5c.071-4.7,4.363-8.508,9.631-8.508m9.243,9.745c-1.13,1.528-4.614,2.915-9.243,2.915s-8.113-1.387-9.243-2.915ZM25.5,20.618V12.382c1.8,1.651,5.4,2.754,9.636,2.754s7.833-1.1,9.634-2.754v8.236a9.635,9.635,0,1,1-19.27,0m.813,16.656,2.426-1.249v1.967l-.483-.447a.619.619,0,1,0-.841.908l3.045,2.819a.619.619,0,1,0,.841-.908l-1.324-1.226v-8.95A10.846,10.846,0,0,0,40.6,30.011v9.4s0,.007,0,.01l-1.325,1.227a.619.619,0,0,0,.841.909l3.044-2.819a.619.619,0,1,0-.841-.908l-.483.447V36.025l1.84.947c0,.012,0,.023,0,.034v7.652H26.311Zm-2.142,1.1.9-.465v6.747h-.9Z" transform="translate(-12.161)" fill="#00194b"/>
          <path id="Trazado_900175" data-name="Trazado 900175" d="M44.579,187.209H41.453c-.96,0-1.431-.272-1.492-1.39v-1.968c.072-1.092.558-1.337,1.532-1.328l3.043,0c.73.007.982-.29.972-.712a5.351,5.351,0,0,0-1.48-2.555,6.353,6.353,0,0,0-10.634,2.485H12.215a6.574,6.574,0,0,0-3.566-3.95,6.506,6.506,0,0,0-8.513,3.65c-.1.247-.207.474-.07.7a.994.994,0,0,0,.869.378h2.9c.739-.011,1.643-.16,1.734,1.3v1.987c-.085.954-.321,1.426-1.782,1.4H.977c-.353-.007-.788.037-.925.363a.843.843,0,0,0,.049.6,6.507,6.507,0,0,0,6.119,4.17,6.56,6.56,0,0,0,5.973-4.433H33.37a6.4,6.4,0,0,0,12.1.326c.283-.756-.091-1.027-.891-1.026m-5.092,4.023H39.48a5.6,5.6,0,0,1-5.1-4.1.545.545,0,0,0-.529-.425H11.7a.475.475,0,0,0-.5.39,5.6,5.6,0,0,1-5.105,4.082H6.087A5.291,5.291,0,0,1,1.6,188.454H4.488a2.544,2.544,0,0,0,2.344-2.644l0-1.987a2.542,2.542,0,0,0-2.357-2.56c-1.411,0-2.281,0-2.861,0A5.327,5.327,0,0,1,6.1,178.438H6.1a4.905,4.905,0,0,1,2.711.848,5.814,5.814,0,0,1,2.273,2.932.9.9,0,0,0,1.033.76s19.436,0,21.76,0a.508.508,0,0,0,.483-.349,5.6,5.6,0,0,1,5.131-4.157H39.5a5.333,5.333,0,0,1,4.511,2.791c-.58,0-2.9,0-2.9,0a2.467,2.467,0,0,0-2.349,2.594l0,1.988a2.492,2.492,0,0,0,2.345,2.61H44a5.333,5.333,0,0,1-4.513,2.777" transform="translate(0 -130.908)" fill="#00194b"/>
        </g>
      </g>
    </g>
  </g>
</svg>
