<svg xmlns="http://www.w3.org/2000/svg" xmlns:xlink="http://www.w3.org/1999/xlink" width="102.031" height="102.032" viewBox="0 0 102.031 102.032">
  <defs>
    <filter id="Trazado_874925" x="0" y="0" width="102.031" height="102.032" filterUnits="userSpaceOnUse">
      <feOffset dy="3" input="SourceAlpha"/>
      <feGaussianBlur stdDeviation="3" result="blur"/>
      <feFlood flood-opacity="0.161"/>
      <feComposite operator="in" in2="blur"/>
    </filter>
    <filter id="Trazado_874925-2" x="0" y="0" width="102.031" height="102.032" filterUnits="userSpaceOnUse">
      <feOffset dy="3" input="SourceAlpha"/>
      <feGaussianBlur stdDeviation="3" result="blur-2"/>
      <feFlood flood-opacity="0.161" result="color"/>
      <feComposite operator="out" in="SourceGraphic" in2="blur-2"/>
      <feComposite operator="in" in="color"/>
      <feComposite operator="in" in2="SourceGraphic"/>
    </filter>
    <clipPath id="clip-path">
      <rect id="Rectángulo_404409" data-name="Rectángulo 404409" width="53" height="53" transform="translate(0 -0.266)" fill="none"/>
    </clipPath>
  </defs>
  <g id="Grupo_1110668" data-name="Grupo 1110668" transform="translate(-801.5 -1953)">
    <g data-type="innerShadowGroup">
      <g transform="matrix(1, 0, 0, 1, 801.5, 1953)" filter="url(#Trazado_874925)">
        <g id="Trazado_874925-3" data-name="Trazado 874925" transform="translate(9 6)" fill="#f3d913">
          <path d="M 42.01562881469727 82.03167724609375 C 36.61266708374023 82.03167724609375 31.37239074707031 80.97395324707031 26.44035339355469 78.88787841796875 C 21.67556571960449 76.87253570556641 17.39591598510742 73.98699188232422 13.72030353546143 70.31138610839844 C 10.04470348358154 66.63577270507812 7.159141540527344 62.35614013671875 5.143803596496582 57.59135055541992 C 3.05772876739502 52.6593132019043 2.000003814697266 47.41903686523438 2.000003814697266 42.01609039306641 C 2.000003814697266 36.61265182495117 3.05772876739502 31.37237548828125 5.143803596496582 26.44033813476562 C 7.159141540527344 21.67555046081543 10.04470348358154 17.39591407775879 13.72030353546143 13.72030067443848 C 17.39591598510742 10.04468822479248 21.67556571960449 7.159138679504395 26.44035339355469 5.143801212310791 C 31.37239074707031 3.057726144790649 36.61267852783203 2.000001192092896 42.01562881469727 2.000001192092896 C 47.4185905456543 2.000001192092896 52.65886688232422 3.057726144790649 57.59090423583984 5.143801212310791 C 62.35570526123047 7.159138679504395 66.63533782958984 10.04468822479248 70.31095123291016 13.72030067443848 C 73.98656463623047 17.39591407775879 76.87211608886719 21.67555046081543 78.887451171875 26.44033813476562 C 80.97352600097656 31.37237548828125 82.03125 36.61265182495117 82.03125 42.01560211181641 C 82.03125 47.41903686523438 80.97352600097656 52.6593132019043 78.887451171875 57.59135055541992 C 76.87211608886719 62.35614013671875 73.98656463623047 66.63577270507812 70.31095123291016 70.31138610839844 C 66.63533782958984 73.98699188232422 62.35570526123047 76.87253570556641 57.59090423583984 78.88787841796875 C 52.65886688232422 80.97395324707031 47.4185905456543 82.03167724609375 42.01562881469727 82.03167724609375 Z" stroke="none"/>
          <path d="M 42.01562881469727 3.999992370605469 C 36.88178634643555 3.999992370605469 31.90362930297852 5.004570007324219 27.21945571899414 6.985809326171875 C 22.69305801391602 8.900306701660156 18.62709808349609 11.64192199707031 15.13451385498047 15.13451385498047 C 11.64194488525391 18.62708282470703 8.900314331054688 22.69303894042969 6.985816955566406 27.21944046020508 C 5.004570007324219 31.90361022949219 4 36.88176727294922 4 42.01608276367188 C 4 47.14992523193359 5.004570007324219 52.12806701660156 6.985816955566406 56.81224060058594 C 8.900314331054688 61.33863830566406 11.64194488525391 65.40459442138672 15.13451385498047 68.89717102050781 C 18.62709808349609 72.38975524902344 22.69305801391602 75.13136291503906 27.21945571899414 77.04586791992188 C 31.90362930297852 79.02710723876953 36.88178634643555 80.03168487548828 42.01562881469727 80.03168487548828 C 47.14947128295898 80.03168487548828 52.12761688232422 79.02710723876953 56.81179809570312 77.04586791992188 C 61.33819961547852 75.13136291503906 65.40415954589844 72.38975524902344 68.89674377441406 68.89717102050781 C 72.38931274414062 65.40459442138672 75.13094329833984 61.33863830566406 77.04544067382812 56.81224060058594 C 79.02668762207031 52.12806701660156 80.03125762939453 47.14992523193359 80.03125762939453 42.01559448242188 C 80.03125762939453 36.88176727294922 79.02668762207031 31.90361022949219 77.04544067382812 27.21944046020508 C 75.13094329833984 22.69303894042969 72.38931274414062 18.62708282470703 68.89674377441406 15.13451385498047 C 65.40415954589844 11.64192199707031 61.33819961547852 8.900306701660156 56.81179809570312 6.985809326171875 C 52.12761688232422 5.004570007324219 47.14947128295898 3.999992370605469 42.01562881469727 3.999992370605469 M 42.01562881469727 -7.62939453125e-06 C 65.22021484375 -7.62939453125e-06 84.03125762939453 18.81102752685547 84.03125762939453 42.01559448242188 L 84.03125762939453 42.01608276367188 C 84.03125762939453 65.22066497802734 65.22021484375 84.03168487548828 42.01562881469727 84.03168487548828 C 18.81102752685547 84.03168487548828 0 65.22066497802734 0 42.01608276367188 L 0 42.01559448242188 C 0 18.81102752685547 18.81102752685547 -7.62939453125e-06 42.01562881469727 -7.62939453125e-06 Z" stroke="none" fill="#fff"/>
        </g>
      </g>
      <g id="Trazado_874925-4" data-name="Trazado 874925" transform="translate(810.5 1959)" fill="#f3d913">
        <path d="M 42.01562881469727 82.03167724609375 C 36.61266708374023 82.03167724609375 31.37239074707031 80.97395324707031 26.44035339355469 78.88787841796875 C 21.67556571960449 76.87253570556641 17.39591598510742 73.98699188232422 13.72030353546143 70.31138610839844 C 10.04470348358154 66.63577270507812 7.159141540527344 62.35614013671875 5.143803596496582 57.59135055541992 C 3.05772876739502 52.6593132019043 2.000003814697266 47.41903686523438 2.000003814697266 42.01609039306641 C 2.000003814697266 36.61265182495117 3.05772876739502 31.37237548828125 5.143803596496582 26.44033813476562 C 7.159141540527344 21.67555046081543 10.04470348358154 17.39591407775879 13.72030353546143 13.72030067443848 C 17.39591598510742 10.04468822479248 21.67556571960449 7.159138679504395 26.44035339355469 5.143801212310791 C 31.37239074707031 3.057726144790649 36.61267852783203 2.000001192092896 42.01562881469727 2.000001192092896 C 47.4185905456543 2.000001192092896 52.65886688232422 3.057726144790649 57.59090423583984 5.143801212310791 C 62.35570526123047 7.159138679504395 66.63533782958984 10.04468822479248 70.31095123291016 13.72030067443848 C 73.98656463623047 17.39591407775879 76.87211608886719 21.67555046081543 78.887451171875 26.44033813476562 C 80.97352600097656 31.37237548828125 82.03125 36.61265182495117 82.03125 42.01560211181641 C 82.03125 47.41903686523438 80.97352600097656 52.6593132019043 78.887451171875 57.59135055541992 C 76.87211608886719 62.35614013671875 73.98656463623047 66.63577270507812 70.31095123291016 70.31138610839844 C 66.63533782958984 73.98699188232422 62.35570526123047 76.87253570556641 57.59090423583984 78.88787841796875 C 52.65886688232422 80.97395324707031 47.4185905456543 82.03167724609375 42.01562881469727 82.03167724609375 Z" stroke="none"/>
        <path d="M 42.01562881469727 3.999992370605469 C 36.88178634643555 3.999992370605469 31.90362930297852 5.004570007324219 27.21945571899414 6.985809326171875 C 22.69305801391602 8.900306701660156 18.62709808349609 11.64192199707031 15.13451385498047 15.13451385498047 C 11.64194488525391 18.62708282470703 8.900314331054688 22.69303894042969 6.985816955566406 27.21944046020508 C 5.004570007324219 31.90361022949219 4 36.88176727294922 4 42.01608276367188 C 4 47.14992523193359 5.004570007324219 52.12806701660156 6.985816955566406 56.81224060058594 C 8.900314331054688 61.33863830566406 11.64194488525391 65.40459442138672 15.13451385498047 68.89717102050781 C 18.62709808349609 72.38975524902344 22.69305801391602 75.13136291503906 27.21945571899414 77.04586791992188 C 31.90362930297852 79.02710723876953 36.88178634643555 80.03168487548828 42.01562881469727 80.03168487548828 C 47.14947128295898 80.03168487548828 52.12761688232422 79.02710723876953 56.81179809570312 77.04586791992188 C 61.33819961547852 75.13136291503906 65.40415954589844 72.38975524902344 68.89674377441406 68.89717102050781 C 72.38931274414062 65.40459442138672 75.13094329833984 61.33863830566406 77.04544067382812 56.81224060058594 C 79.02668762207031 52.12806701660156 80.03125762939453 47.14992523193359 80.03125762939453 42.01559448242188 C 80.03125762939453 36.88176727294922 79.02668762207031 31.90361022949219 77.04544067382812 27.21944046020508 C 75.13094329833984 22.69303894042969 72.38931274414062 18.62708282470703 68.89674377441406 15.13451385498047 C 65.40415954589844 11.64192199707031 61.33819961547852 8.900306701660156 56.81179809570312 6.985809326171875 C 52.12761688232422 5.004570007324219 47.14947128295898 3.999992370605469 42.01562881469727 3.999992370605469 M 42.01562881469727 -7.62939453125e-06 C 65.22021484375 -7.62939453125e-06 84.03125762939453 18.81102752685547 84.03125762939453 42.01559448242188 L 84.03125762939453 42.01608276367188 C 84.03125762939453 65.22066497802734 65.22021484375 84.03168487548828 42.01562881469727 84.03168487548828 C 18.81102752685547 84.03168487548828 0 65.22066497802734 0 42.01608276367188 L 0 42.01559448242188 C 0 18.81102752685547 18.81102752685547 -7.62939453125e-06 42.01562881469727 -7.62939453125e-06 Z" stroke="none"/>
      </g>
      <g transform="matrix(1, 0, 0, 1, 801.5, 1953)" filter="url(#Trazado_874925-2)">
        <g id="Trazado_874925-5" data-name="Trazado 874925" transform="translate(9 6)" fill="#fff">
          <path d="M 42.01562881469727 82.03167724609375 C 36.61266708374023 82.03167724609375 31.37239074707031 80.97395324707031 26.44035339355469 78.88787841796875 C 21.67556571960449 76.87253570556641 17.39591598510742 73.98699188232422 13.72030353546143 70.31138610839844 C 10.04470348358154 66.63577270507812 7.159141540527344 62.35614013671875 5.143803596496582 57.59135055541992 C 3.05772876739502 52.6593132019043 2.000003814697266 47.41903686523438 2.000003814697266 42.01609039306641 C 2.000003814697266 36.61265182495117 3.05772876739502 31.37237548828125 5.143803596496582 26.44033813476562 C 7.159141540527344 21.67555046081543 10.04470348358154 17.39591407775879 13.72030353546143 13.72030067443848 C 17.39591598510742 10.04468822479248 21.67556571960449 7.159138679504395 26.44035339355469 5.143801212310791 C 31.37239074707031 3.057726144790649 36.61267852783203 2.000001192092896 42.01562881469727 2.000001192092896 C 47.4185905456543 2.000001192092896 52.65886688232422 3.057726144790649 57.59090423583984 5.143801212310791 C 62.35570526123047 7.159138679504395 66.63533782958984 10.04468822479248 70.31095123291016 13.72030067443848 C 73.98656463623047 17.39591407775879 76.87211608886719 21.67555046081543 78.887451171875 26.44033813476562 C 80.97352600097656 31.37237548828125 82.03125 36.61265182495117 82.03125 42.01560211181641 C 82.03125 47.41903686523438 80.97352600097656 52.6593132019043 78.887451171875 57.59135055541992 C 76.87211608886719 62.35614013671875 73.98656463623047 66.63577270507812 70.31095123291016 70.31138610839844 C 66.63533782958984 73.98699188232422 62.35570526123047 76.87253570556641 57.59090423583984 78.88787841796875 C 52.65886688232422 80.97395324707031 47.4185905456543 82.03167724609375 42.01562881469727 82.03167724609375 Z" stroke="none"/>
          <path d="M 42.01562881469727 3.999992370605469 C 36.88178634643555 3.999992370605469 31.90362930297852 5.004570007324219 27.21945571899414 6.985809326171875 C 22.69305801391602 8.900306701660156 18.62709808349609 11.64192199707031 15.13451385498047 15.13451385498047 C 11.64194488525391 18.62708282470703 8.900314331054688 22.69303894042969 6.985816955566406 27.21944046020508 C 5.004570007324219 31.90361022949219 4 36.88176727294922 4 42.01608276367188 C 4 47.14992523193359 5.004570007324219 52.12806701660156 6.985816955566406 56.81224060058594 C 8.900314331054688 61.33863830566406 11.64194488525391 65.40459442138672 15.13451385498047 68.89717102050781 C 18.62709808349609 72.38975524902344 22.69305801391602 75.13136291503906 27.21945571899414 77.04586791992188 C 31.90362930297852 79.02710723876953 36.88178634643555 80.03168487548828 42.01562881469727 80.03168487548828 C 47.14947128295898 80.03168487548828 52.12761688232422 79.02710723876953 56.81179809570312 77.04586791992188 C 61.33819961547852 75.13136291503906 65.40415954589844 72.38975524902344 68.89674377441406 68.89717102050781 C 72.38931274414062 65.40459442138672 75.13094329833984 61.33863830566406 77.04544067382812 56.81224060058594 C 79.02668762207031 52.12806701660156 80.03125762939453 47.14992523193359 80.03125762939453 42.01559448242188 C 80.03125762939453 36.88176727294922 79.02668762207031 31.90361022949219 77.04544067382812 27.21944046020508 C 75.13094329833984 22.69303894042969 72.38931274414062 18.62708282470703 68.89674377441406 15.13451385498047 C 65.40415954589844 11.64192199707031 61.33819961547852 8.900306701660156 56.81179809570312 6.985809326171875 C 52.12761688232422 5.004570007324219 47.14947128295898 3.999992370605469 42.01562881469727 3.999992370605469 M 42.01562881469727 -7.62939453125e-06 C 65.22021484375 -7.62939453125e-06 84.03125762939453 18.81102752685547 84.03125762939453 42.01559448242188 L 84.03125762939453 42.01608276367188 C 84.03125762939453 65.22066497802734 65.22021484375 84.03168487548828 42.01562881469727 84.03168487548828 C 18.81102752685547 84.03168487548828 0 65.22066497802734 0 42.01608276367188 L 0 42.01559448242188 C 0 18.81102752685547 18.81102752685547 -7.62939453125e-06 42.01562881469727 -7.62939453125e-06 Z" stroke="none"/>
        </g>
      </g>
      <g id="Trazado_874925-6" data-name="Trazado 874925" transform="translate(810.5 1959)" fill="none">
        <path d="M 42.01562881469727 82.03167724609375 C 36.61266708374023 82.03167724609375 31.37239074707031 80.97395324707031 26.44035339355469 78.88787841796875 C 21.67556571960449 76.87253570556641 17.39591598510742 73.98699188232422 13.72030353546143 70.31138610839844 C 10.04470348358154 66.63577270507812 7.159141540527344 62.35614013671875 5.143803596496582 57.59135055541992 C 3.05772876739502 52.6593132019043 2.000003814697266 47.41903686523438 2.000003814697266 42.01609039306641 C 2.000003814697266 36.61265182495117 3.05772876739502 31.37237548828125 5.143803596496582 26.44033813476562 C 7.159141540527344 21.67555046081543 10.04470348358154 17.39591407775879 13.72030353546143 13.72030067443848 C 17.39591598510742 10.04468822479248 21.67556571960449 7.159138679504395 26.44035339355469 5.143801212310791 C 31.37239074707031 3.057726144790649 36.61267852783203 2.000001192092896 42.01562881469727 2.000001192092896 C 47.4185905456543 2.000001192092896 52.65886688232422 3.057726144790649 57.59090423583984 5.143801212310791 C 62.35570526123047 7.159138679504395 66.63533782958984 10.04468822479248 70.31095123291016 13.72030067443848 C 73.98656463623047 17.39591407775879 76.87211608886719 21.67555046081543 78.887451171875 26.44033813476562 C 80.97352600097656 31.37237548828125 82.03125 36.61265182495117 82.03125 42.01560211181641 C 82.03125 47.41903686523438 80.97352600097656 52.6593132019043 78.887451171875 57.59135055541992 C 76.87211608886719 62.35614013671875 73.98656463623047 66.63577270507812 70.31095123291016 70.31138610839844 C 66.63533782958984 73.98699188232422 62.35570526123047 76.87253570556641 57.59090423583984 78.88787841796875 C 52.65886688232422 80.97395324707031 47.4185905456543 82.03167724609375 42.01562881469727 82.03167724609375 Z" stroke="none"/>
        <path d="M 42.01562881469727 3.999992370605469 C 36.88178634643555 3.999992370605469 31.90362930297852 5.004570007324219 27.21945571899414 6.985809326171875 C 22.69305801391602 8.900306701660156 18.62709808349609 11.64192199707031 15.13451385498047 15.13451385498047 C 11.64194488525391 18.62708282470703 8.900314331054688 22.69303894042969 6.985816955566406 27.21944046020508 C 5.004570007324219 31.90361022949219 4 36.88176727294922 4 42.01608276367188 C 4 47.14992523193359 5.004570007324219 52.12806701660156 6.985816955566406 56.81224060058594 C 8.900314331054688 61.33863830566406 11.64194488525391 65.40459442138672 15.13451385498047 68.89717102050781 C 18.62709808349609 72.38975524902344 22.69305801391602 75.13136291503906 27.21945571899414 77.04586791992188 C 31.90362930297852 79.02710723876953 36.88178634643555 80.03168487548828 42.01562881469727 80.03168487548828 C 47.14947128295898 80.03168487548828 52.12761688232422 79.02710723876953 56.81179809570312 77.04586791992188 C 61.33819961547852 75.13136291503906 65.40415954589844 72.38975524902344 68.89674377441406 68.89717102050781 C 72.38931274414062 65.40459442138672 75.13094329833984 61.33863830566406 77.04544067382812 56.81224060058594 C 79.02668762207031 52.12806701660156 80.03125762939453 47.14992523193359 80.03125762939453 42.01559448242188 C 80.03125762939453 36.88176727294922 79.02668762207031 31.90361022949219 77.04544067382812 27.21944046020508 C 75.13094329833984 22.69303894042969 72.38931274414062 18.62708282470703 68.89674377441406 15.13451385498047 C 65.40415954589844 11.64192199707031 61.33819961547852 8.900306701660156 56.81179809570312 6.985809326171875 C 52.12761688232422 5.004570007324219 47.14947128295898 3.999992370605469 42.01562881469727 3.999992370605469 M 42.01562881469727 -7.62939453125e-06 C 65.22021484375 -7.62939453125e-06 84.03125762939453 18.81102752685547 84.03125762939453 42.01559448242188 L 84.03125762939453 42.01608276367188 C 84.03125762939453 65.22066497802734 65.22021484375 84.03168487548828 42.01562881469727 84.03168487548828 C 18.81102752685547 84.03168487548828 0 65.22066497802734 0 42.01608276367188 L 0 42.01559448242188 C 0 18.81102752685547 18.81102752685547 -7.62939453125e-06 42.01562881469727 -7.62939453125e-06 Z" stroke="none" fill="#fff"/>
      </g>
    </g>
    <g id="Grupo_1110723" data-name="Grupo 1110723" transform="translate(826.5 1974.281)">
      <g id="Grupo_1110722" data-name="Grupo 1110722" clip-path="url(#clip-path)">
        <path id="Trazado_900139" data-name="Trazado 900139" d="M54.2,28.645A25.552,25.552,0,1,1,28.644,3.093,25.552,25.552,0,0,1,54.2,28.645" transform="translate(-2.277 -2.277)" fill="#5c74b0"/>
        <path id="Trazado_900140" data-name="Trazado 900140" d="M65.419,46.13A19.291,19.291,0,1,1,46.128,26.839,19.291,19.291,0,0,1,65.419,46.13" transform="translate(-19.761 -19.762)" fill="#38457d"/>
        <path id="Trazado_900141" data-name="Trazado 900141" d="M69.732,52.848A16.885,16.885,0,1,1,52.847,35.963,16.885,16.885,0,0,1,69.732,52.848" transform="translate(-26.48 -26.481)" fill="#93b6cc"/>
        <path id="Trazado_900142" data-name="Trazado 900142" d="M74.213,59.828A14.386,14.386,0,1,1,59.827,45.442,14.386,14.386,0,0,1,74.213,59.828" transform="translate(-33.46 -33.46)" fill="#6e82a8"/>
        <path id="Trazado_900143" data-name="Trazado 900143" d="M78.229,66.084A12.145,12.145,0,1,1,66.083,53.939,12.145,12.145,0,0,1,78.229,66.084" transform="translate(-39.716 -39.717)" fill="#93b6cc"/>
        <path id="Trazado_900144" data-name="Trazado 900144" d="M129.292,72.208a5.744,5.744,0,0,0,5.744,5.744,5.8,5.8,0,0,0,.73-.051,14.473,14.473,0,0,0,.187-2.313,14.319,14.319,0,0,0-2.964-8.742,5.74,5.74,0,0,0-3.7,5.362" transform="translate(-95.201 -49.221)" fill="#38457d"/>
        <path id="Trazado_900145" data-name="Trazado 900145" d="M78.244,46.626c-.018.186-.029.375-.029.566a5.744,5.744,0,1,0,11.488,0c0-.191-.01-.38-.028-.566a14.4,14.4,0,0,0-11.431,0" transform="translate(-57.592 -33.461)" fill="#38457d"/>
        <path id="Trazado_900146" data-name="Trazado 900146" d="M56.023,118.285a5.723,5.723,0,0,0-4.26,1.9,14.414,14.414,0,0,0,8.944,7.16,5.738,5.738,0,0,0-4.684-9.061" transform="translate(-38.115 -87.097)" fill="#38457d"/>
        <path id="Trazado_900147" data-name="Trazado 900147" d="M117.739,122.788a5.739,5.739,0,0,0-9.421,6.511,14.4,14.4,0,0,0,9.421-6.511" transform="translate(-79.16 -88.818)" fill="#38457d"/>
        <path id="Trazado_900148" data-name="Trazado 900148" d="M48.9,64.548A14.323,14.323,0,0,0,45.441,73.9a14.608,14.608,0,0,0,.089,1.587A5.742,5.742,0,0,0,48.9,64.548" transform="translate(-33.459 -47.529)" fill="#38457d"/>
        <path id="Trazado_900149" data-name="Trazado 900149" d="M91.158,86.226a4.933,4.933,0,1,1-4.933-4.933,4.933,4.933,0,0,1,4.933,4.933" transform="translate(-59.858 -59.858)" fill="#6e82a8"/>
        <path id="Trazado_900150" data-name="Trazado 900150" d="M93.941,90.562a3.38,3.38,0,1,1-3.38-3.38,3.38,3.38,0,0,1,3.38,3.38" transform="translate(-64.194 -64.195)" fill="#93b6cc"/>
        <path id="Trazado_900151" data-name="Trazado 900151" d="M26.367,0A26.367,26.367,0,1,0,52.734,26.367,26.4,26.4,0,0,0,26.367,0m0,51.422A25.055,25.055,0,1,1,51.422,26.367,25.083,25.083,0,0,1,26.367,51.422" fill="#00194b"/>
        <path id="Trazado_900152" data-name="Trazado 900152" d="M50.79,33.17A17.622,17.622,0,1,0,68.412,50.791,17.641,17.641,0,0,0,50.79,33.17m0,33.931A16.309,16.309,0,1,1,67.1,50.791,16.328,16.328,0,0,1,50.79,67.1" transform="translate(-24.423 -24.424)" fill="#00194b"/>
        <path id="Trazado_900153" data-name="Trazado 900153" d="M92.781,88.755a4.027,4.027,0,1,0-4.027,4.027,4.031,4.031,0,0,0,4.027-4.027M88.754,91.47a2.715,2.715,0,1,1,2.715-2.715,2.718,2.718,0,0,1-2.715,2.715" transform="translate(-62.387 -62.388)" fill="#00194b"/>
        <path id="Trazado_900154" data-name="Trazado 900154" d="M57.825,42.723a15.1,15.1,0,1,0,15.1,15.1,15.127,15.127,0,0,0-15.1-15.1m4.874,2.2c.013.145.021.29.021.434a4.894,4.894,0,0,1-9.789,0c0-.144.008-.289.021-.434a13.757,13.757,0,0,1,9.747,0m-15.8,4.5a4.89,4.89,0,0,1-2.831,9.28c-.018-.292-.031-.587-.031-.884a13.719,13.719,0,0,1,2.862-8.4m-.965,15.365a4.851,4.851,0,0,1,3.55-1.531,4.893,4.893,0,0,1,4.037,7.66,13.853,13.853,0,0,1-7.587-6.129m8.907,6.492A6.2,6.2,0,0,0,45.3,63.577a13.685,13.685,0,0,1-1.078-3.523A6.2,6.2,0,0,0,47.777,48.4a13.857,13.857,0,0,1,3.845-2.88,6.2,6.2,0,0,0,12.406,0,13.871,13.871,0,0,1,4.26,3.343,6.2,6.2,0,0,0,2.675,11.8c.12,0,.24,0,.36-.011a13.692,13.692,0,0,1-1.444,3.864A6.2,6.2,0,0,0,59.8,71.471a13.69,13.69,0,0,1-4.965-.185m6.307-.078a4.89,4.89,0,0,1,8.01-5.538,13.83,13.83,0,0,1-8.01,5.538m10.387-11.9a4.891,4.891,0,0,1-2.416-9.388,13.711,13.711,0,0,1,2.5,7.9,13.869,13.869,0,0,1-.081,1.488" transform="translate(-31.457 -31.458)" fill="#00194b"/>
      </g>
    </g>
  </g>
</svg>
