<svg xmlns="http://www.w3.org/2000/svg" xmlns:xlink="http://www.w3.org/1999/xlink" width="102.031" height="102.032" viewBox="0 0 102.031 102.032">
  <defs>
    <filter id="Trazado_874925" x="0" y="0" width="102.031" height="102.032" filterUnits="userSpaceOnUse">
      <feOffset dy="3" input="SourceAlpha"/>
      <feGaussianBlur stdDeviation="3" result="blur"/>
      <feFlood flood-opacity="0.161"/>
      <feComposite operator="in" in2="blur"/>
    </filter>
    <filter id="Trazado_874925-2" x="0" y="0" width="102.031" height="102.032" filterUnits="userSpaceOnUse">
      <feOffset dy="3" input="SourceAlpha"/>
      <feGaussianBlur stdDeviation="3" result="blur-2"/>
      <feFlood flood-opacity="0.161" result="color"/>
      <feComposite operator="out" in="SourceGraphic" in2="blur-2"/>
      <feComposite operator="in" in="color"/>
      <feComposite operator="in" in2="SourceGraphic"/>
    </filter>
    <clipPath id="clip-path">
      <rect id="Rectángulo_404408" data-name="Rectángulo 404408" width="67.539" height="42.954" fill="none"/>
    </clipPath>
  </defs>
  <g id="Grupo_1110668" data-name="Grupo 1110668" transform="translate(-801.5 -1953)">
    <g data-type="innerShadowGroup">
      <g transform="matrix(1, 0, 0, 1, 801.5, 1953)" filter="url(#Trazado_874925)">
        <g id="Trazado_874925-3" data-name="Trazado 874925" transform="translate(9 6)" fill="#f3d913">
          <path d="M 42.01562881469727 82.03167724609375 C 36.61266708374023 82.03167724609375 31.37239074707031 80.97395324707031 26.44035339355469 78.88787841796875 C 21.67556571960449 76.87253570556641 17.39591598510742 73.98699188232422 13.72030353546143 70.31138610839844 C 10.04470348358154 66.63577270507812 7.159141540527344 62.35614013671875 5.143803596496582 57.59135055541992 C 3.05772876739502 52.6593132019043 2.000003814697266 47.41903686523438 2.000003814697266 42.01609039306641 C 2.000003814697266 36.61265182495117 3.05772876739502 31.37237548828125 5.143803596496582 26.44033813476562 C 7.159141540527344 21.67555046081543 10.04470348358154 17.39591407775879 13.72030353546143 13.72030067443848 C 17.39591598510742 10.04468822479248 21.67556571960449 7.159138679504395 26.44035339355469 5.143801212310791 C 31.37239074707031 3.057726144790649 36.61267852783203 2.000001192092896 42.01562881469727 2.000001192092896 C 47.4185905456543 2.000001192092896 52.65886688232422 3.057726144790649 57.59090423583984 5.143801212310791 C 62.35570526123047 7.159138679504395 66.63533782958984 10.04468822479248 70.31095123291016 13.72030067443848 C 73.98656463623047 17.39591407775879 76.87211608886719 21.67555046081543 78.887451171875 26.44033813476562 C 80.97352600097656 31.37237548828125 82.03125 36.61265182495117 82.03125 42.01560211181641 C 82.03125 47.41903686523438 80.97352600097656 52.6593132019043 78.887451171875 57.59135055541992 C 76.87211608886719 62.35614013671875 73.98656463623047 66.63577270507812 70.31095123291016 70.31138610839844 C 66.63533782958984 73.98699188232422 62.35570526123047 76.87253570556641 57.59090423583984 78.88787841796875 C 52.65886688232422 80.97395324707031 47.4185905456543 82.03167724609375 42.01562881469727 82.03167724609375 Z" stroke="none"/>
          <path d="M 42.01562881469727 3.999992370605469 C 36.88178634643555 3.999992370605469 31.90362930297852 5.004570007324219 27.21945571899414 6.985809326171875 C 22.69305801391602 8.900306701660156 18.62709808349609 11.64192199707031 15.13451385498047 15.13451385498047 C 11.64194488525391 18.62708282470703 8.900314331054688 22.69303894042969 6.985816955566406 27.21944046020508 C 5.004570007324219 31.90361022949219 4 36.88176727294922 4 42.01608276367188 C 4 47.14992523193359 5.004570007324219 52.12806701660156 6.985816955566406 56.81224060058594 C 8.900314331054688 61.33863830566406 11.64194488525391 65.40459442138672 15.13451385498047 68.89717102050781 C 18.62709808349609 72.38975524902344 22.69305801391602 75.13136291503906 27.21945571899414 77.04586791992188 C 31.90362930297852 79.02710723876953 36.88178634643555 80.03168487548828 42.01562881469727 80.03168487548828 C 47.14947128295898 80.03168487548828 52.12761688232422 79.02710723876953 56.81179809570312 77.04586791992188 C 61.33819961547852 75.13136291503906 65.40415954589844 72.38975524902344 68.89674377441406 68.89717102050781 C 72.38931274414062 65.40459442138672 75.13094329833984 61.33863830566406 77.04544067382812 56.81224060058594 C 79.02668762207031 52.12806701660156 80.03125762939453 47.14992523193359 80.03125762939453 42.01559448242188 C 80.03125762939453 36.88176727294922 79.02668762207031 31.90361022949219 77.04544067382812 27.21944046020508 C 75.13094329833984 22.69303894042969 72.38931274414062 18.62708282470703 68.89674377441406 15.13451385498047 C 65.40415954589844 11.64192199707031 61.33819961547852 8.900306701660156 56.81179809570312 6.985809326171875 C 52.12761688232422 5.004570007324219 47.14947128295898 3.999992370605469 42.01562881469727 3.999992370605469 M 42.01562881469727 -7.62939453125e-06 C 65.22021484375 -7.62939453125e-06 84.03125762939453 18.81102752685547 84.03125762939453 42.01559448242188 L 84.03125762939453 42.01608276367188 C 84.03125762939453 65.22066497802734 65.22021484375 84.03168487548828 42.01562881469727 84.03168487548828 C 18.81102752685547 84.03168487548828 0 65.22066497802734 0 42.01608276367188 L 0 42.01559448242188 C 0 18.81102752685547 18.81102752685547 -7.62939453125e-06 42.01562881469727 -7.62939453125e-06 Z" stroke="none" fill="#fff"/>
        </g>
      </g>
      <g id="Trazado_874925-4" data-name="Trazado 874925" transform="translate(810.5 1959)" fill="#f3d913">
        <path d="M 42.01562881469727 82.03167724609375 C 36.61266708374023 82.03167724609375 31.37239074707031 80.97395324707031 26.44035339355469 78.88787841796875 C 21.67556571960449 76.87253570556641 17.39591598510742 73.98699188232422 13.72030353546143 70.31138610839844 C 10.04470348358154 66.63577270507812 7.159141540527344 62.35614013671875 5.143803596496582 57.59135055541992 C 3.05772876739502 52.6593132019043 2.000003814697266 47.41903686523438 2.000003814697266 42.01609039306641 C 2.000003814697266 36.61265182495117 3.05772876739502 31.37237548828125 5.143803596496582 26.44033813476562 C 7.159141540527344 21.67555046081543 10.04470348358154 17.39591407775879 13.72030353546143 13.72030067443848 C 17.39591598510742 10.04468822479248 21.67556571960449 7.159138679504395 26.44035339355469 5.143801212310791 C 31.37239074707031 3.057726144790649 36.61267852783203 2.000001192092896 42.01562881469727 2.000001192092896 C 47.4185905456543 2.000001192092896 52.65886688232422 3.057726144790649 57.59090423583984 5.143801212310791 C 62.35570526123047 7.159138679504395 66.63533782958984 10.04468822479248 70.31095123291016 13.72030067443848 C 73.98656463623047 17.39591407775879 76.87211608886719 21.67555046081543 78.887451171875 26.44033813476562 C 80.97352600097656 31.37237548828125 82.03125 36.61265182495117 82.03125 42.01560211181641 C 82.03125 47.41903686523438 80.97352600097656 52.6593132019043 78.887451171875 57.59135055541992 C 76.87211608886719 62.35614013671875 73.98656463623047 66.63577270507812 70.31095123291016 70.31138610839844 C 66.63533782958984 73.98699188232422 62.35570526123047 76.87253570556641 57.59090423583984 78.88787841796875 C 52.65886688232422 80.97395324707031 47.4185905456543 82.03167724609375 42.01562881469727 82.03167724609375 Z" stroke="none"/>
        <path d="M 42.01562881469727 3.999992370605469 C 36.88178634643555 3.999992370605469 31.90362930297852 5.004570007324219 27.21945571899414 6.985809326171875 C 22.69305801391602 8.900306701660156 18.62709808349609 11.64192199707031 15.13451385498047 15.13451385498047 C 11.64194488525391 18.62708282470703 8.900314331054688 22.69303894042969 6.985816955566406 27.21944046020508 C 5.004570007324219 31.90361022949219 4 36.88176727294922 4 42.01608276367188 C 4 47.14992523193359 5.004570007324219 52.12806701660156 6.985816955566406 56.81224060058594 C 8.900314331054688 61.33863830566406 11.64194488525391 65.40459442138672 15.13451385498047 68.89717102050781 C 18.62709808349609 72.38975524902344 22.69305801391602 75.13136291503906 27.21945571899414 77.04586791992188 C 31.90362930297852 79.02710723876953 36.88178634643555 80.03168487548828 42.01562881469727 80.03168487548828 C 47.14947128295898 80.03168487548828 52.12761688232422 79.02710723876953 56.81179809570312 77.04586791992188 C 61.33819961547852 75.13136291503906 65.40415954589844 72.38975524902344 68.89674377441406 68.89717102050781 C 72.38931274414062 65.40459442138672 75.13094329833984 61.33863830566406 77.04544067382812 56.81224060058594 C 79.02668762207031 52.12806701660156 80.03125762939453 47.14992523193359 80.03125762939453 42.01559448242188 C 80.03125762939453 36.88176727294922 79.02668762207031 31.90361022949219 77.04544067382812 27.21944046020508 C 75.13094329833984 22.69303894042969 72.38931274414062 18.62708282470703 68.89674377441406 15.13451385498047 C 65.40415954589844 11.64192199707031 61.33819961547852 8.900306701660156 56.81179809570312 6.985809326171875 C 52.12761688232422 5.004570007324219 47.14947128295898 3.999992370605469 42.01562881469727 3.999992370605469 M 42.01562881469727 -7.62939453125e-06 C 65.22021484375 -7.62939453125e-06 84.03125762939453 18.81102752685547 84.03125762939453 42.01559448242188 L 84.03125762939453 42.01608276367188 C 84.03125762939453 65.22066497802734 65.22021484375 84.03168487548828 42.01562881469727 84.03168487548828 C 18.81102752685547 84.03168487548828 0 65.22066497802734 0 42.01608276367188 L 0 42.01559448242188 C 0 18.81102752685547 18.81102752685547 -7.62939453125e-06 42.01562881469727 -7.62939453125e-06 Z" stroke="none"/>
      </g>
      <g transform="matrix(1, 0, 0, 1, 801.5, 1953)" filter="url(#Trazado_874925-2)">
        <g id="Trazado_874925-5" data-name="Trazado 874925" transform="translate(9 6)" fill="#fff">
          <path d="M 42.01562881469727 82.03167724609375 C 36.61266708374023 82.03167724609375 31.37239074707031 80.97395324707031 26.44035339355469 78.88787841796875 C 21.67556571960449 76.87253570556641 17.39591598510742 73.98699188232422 13.72030353546143 70.31138610839844 C 10.04470348358154 66.63577270507812 7.159141540527344 62.35614013671875 5.143803596496582 57.59135055541992 C 3.05772876739502 52.6593132019043 2.000003814697266 47.41903686523438 2.000003814697266 42.01609039306641 C 2.000003814697266 36.61265182495117 3.05772876739502 31.37237548828125 5.143803596496582 26.44033813476562 C 7.159141540527344 21.67555046081543 10.04470348358154 17.39591407775879 13.72030353546143 13.72030067443848 C 17.39591598510742 10.04468822479248 21.67556571960449 7.159138679504395 26.44035339355469 5.143801212310791 C 31.37239074707031 3.057726144790649 36.61267852783203 2.000001192092896 42.01562881469727 2.000001192092896 C 47.4185905456543 2.000001192092896 52.65886688232422 3.057726144790649 57.59090423583984 5.143801212310791 C 62.35570526123047 7.159138679504395 66.63533782958984 10.04468822479248 70.31095123291016 13.72030067443848 C 73.98656463623047 17.39591407775879 76.87211608886719 21.67555046081543 78.887451171875 26.44033813476562 C 80.97352600097656 31.37237548828125 82.03125 36.61265182495117 82.03125 42.01560211181641 C 82.03125 47.41903686523438 80.97352600097656 52.6593132019043 78.887451171875 57.59135055541992 C 76.87211608886719 62.35614013671875 73.98656463623047 66.63577270507812 70.31095123291016 70.31138610839844 C 66.63533782958984 73.98699188232422 62.35570526123047 76.87253570556641 57.59090423583984 78.88787841796875 C 52.65886688232422 80.97395324707031 47.4185905456543 82.03167724609375 42.01562881469727 82.03167724609375 Z" stroke="none"/>
          <path d="M 42.01562881469727 3.999992370605469 C 36.88178634643555 3.999992370605469 31.90362930297852 5.004570007324219 27.21945571899414 6.985809326171875 C 22.69305801391602 8.900306701660156 18.62709808349609 11.64192199707031 15.13451385498047 15.13451385498047 C 11.64194488525391 18.62708282470703 8.900314331054688 22.69303894042969 6.985816955566406 27.21944046020508 C 5.004570007324219 31.90361022949219 4 36.88176727294922 4 42.01608276367188 C 4 47.14992523193359 5.004570007324219 52.12806701660156 6.985816955566406 56.81224060058594 C 8.900314331054688 61.33863830566406 11.64194488525391 65.40459442138672 15.13451385498047 68.89717102050781 C 18.62709808349609 72.38975524902344 22.69305801391602 75.13136291503906 27.21945571899414 77.04586791992188 C 31.90362930297852 79.02710723876953 36.88178634643555 80.03168487548828 42.01562881469727 80.03168487548828 C 47.14947128295898 80.03168487548828 52.12761688232422 79.02710723876953 56.81179809570312 77.04586791992188 C 61.33819961547852 75.13136291503906 65.40415954589844 72.38975524902344 68.89674377441406 68.89717102050781 C 72.38931274414062 65.40459442138672 75.13094329833984 61.33863830566406 77.04544067382812 56.81224060058594 C 79.02668762207031 52.12806701660156 80.03125762939453 47.14992523193359 80.03125762939453 42.01559448242188 C 80.03125762939453 36.88176727294922 79.02668762207031 31.90361022949219 77.04544067382812 27.21944046020508 C 75.13094329833984 22.69303894042969 72.38931274414062 18.62708282470703 68.89674377441406 15.13451385498047 C 65.40415954589844 11.64192199707031 61.33819961547852 8.900306701660156 56.81179809570312 6.985809326171875 C 52.12761688232422 5.004570007324219 47.14947128295898 3.999992370605469 42.01562881469727 3.999992370605469 M 42.01562881469727 -7.62939453125e-06 C 65.22021484375 -7.62939453125e-06 84.03125762939453 18.81102752685547 84.03125762939453 42.01559448242188 L 84.03125762939453 42.01608276367188 C 84.03125762939453 65.22066497802734 65.22021484375 84.03168487548828 42.01562881469727 84.03168487548828 C 18.81102752685547 84.03168487548828 0 65.22066497802734 0 42.01608276367188 L 0 42.01559448242188 C 0 18.81102752685547 18.81102752685547 -7.62939453125e-06 42.01562881469727 -7.62939453125e-06 Z" stroke="none"/>
        </g>
      </g>
      <g id="Trazado_874925-6" data-name="Trazado 874925" transform="translate(810.5 1959)" fill="none">
        <path d="M 42.01562881469727 82.03167724609375 C 36.61266708374023 82.03167724609375 31.37239074707031 80.97395324707031 26.44035339355469 78.88787841796875 C 21.67556571960449 76.87253570556641 17.39591598510742 73.98699188232422 13.72030353546143 70.31138610839844 C 10.04470348358154 66.63577270507812 7.159141540527344 62.35614013671875 5.143803596496582 57.59135055541992 C 3.05772876739502 52.6593132019043 2.000003814697266 47.41903686523438 2.000003814697266 42.01609039306641 C 2.000003814697266 36.61265182495117 3.05772876739502 31.37237548828125 5.143803596496582 26.44033813476562 C 7.159141540527344 21.67555046081543 10.04470348358154 17.39591407775879 13.72030353546143 13.72030067443848 C 17.39591598510742 10.04468822479248 21.67556571960449 7.159138679504395 26.44035339355469 5.143801212310791 C 31.37239074707031 3.057726144790649 36.61267852783203 2.000001192092896 42.01562881469727 2.000001192092896 C 47.4185905456543 2.000001192092896 52.65886688232422 3.057726144790649 57.59090423583984 5.143801212310791 C 62.35570526123047 7.159138679504395 66.63533782958984 10.04468822479248 70.31095123291016 13.72030067443848 C 73.98656463623047 17.39591407775879 76.87211608886719 21.67555046081543 78.887451171875 26.44033813476562 C 80.97352600097656 31.37237548828125 82.03125 36.61265182495117 82.03125 42.01560211181641 C 82.03125 47.41903686523438 80.97352600097656 52.6593132019043 78.887451171875 57.59135055541992 C 76.87211608886719 62.35614013671875 73.98656463623047 66.63577270507812 70.31095123291016 70.31138610839844 C 66.63533782958984 73.98699188232422 62.35570526123047 76.87253570556641 57.59090423583984 78.88787841796875 C 52.65886688232422 80.97395324707031 47.4185905456543 82.03167724609375 42.01562881469727 82.03167724609375 Z" stroke="none"/>
        <path d="M 42.01562881469727 3.999992370605469 C 36.88178634643555 3.999992370605469 31.90362930297852 5.004570007324219 27.21945571899414 6.985809326171875 C 22.69305801391602 8.900306701660156 18.62709808349609 11.64192199707031 15.13451385498047 15.13451385498047 C 11.64194488525391 18.62708282470703 8.900314331054688 22.69303894042969 6.985816955566406 27.21944046020508 C 5.004570007324219 31.90361022949219 4 36.88176727294922 4 42.01608276367188 C 4 47.14992523193359 5.004570007324219 52.12806701660156 6.985816955566406 56.81224060058594 C 8.900314331054688 61.33863830566406 11.64194488525391 65.40459442138672 15.13451385498047 68.89717102050781 C 18.62709808349609 72.38975524902344 22.69305801391602 75.13136291503906 27.21945571899414 77.04586791992188 C 31.90362930297852 79.02710723876953 36.88178634643555 80.03168487548828 42.01562881469727 80.03168487548828 C 47.14947128295898 80.03168487548828 52.12761688232422 79.02710723876953 56.81179809570312 77.04586791992188 C 61.33819961547852 75.13136291503906 65.40415954589844 72.38975524902344 68.89674377441406 68.89717102050781 C 72.38931274414062 65.40459442138672 75.13094329833984 61.33863830566406 77.04544067382812 56.81224060058594 C 79.02668762207031 52.12806701660156 80.03125762939453 47.14992523193359 80.03125762939453 42.01559448242188 C 80.03125762939453 36.88176727294922 79.02668762207031 31.90361022949219 77.04544067382812 27.21944046020508 C 75.13094329833984 22.69303894042969 72.38931274414062 18.62708282470703 68.89674377441406 15.13451385498047 C 65.40415954589844 11.64192199707031 61.33819961547852 8.900306701660156 56.81179809570312 6.985809326171875 C 52.12761688232422 5.004570007324219 47.14947128295898 3.999992370605469 42.01562881469727 3.999992370605469 M 42.01562881469727 -7.62939453125e-06 C 65.22021484375 -7.62939453125e-06 84.03125762939453 18.81102752685547 84.03125762939453 42.01559448242188 L 84.03125762939453 42.01608276367188 C 84.03125762939453 65.22066497802734 65.22021484375 84.03168487548828 42.01562881469727 84.03168487548828 C 18.81102752685547 84.03168487548828 0 65.22066497802734 0 42.01608276367188 L 0 42.01559448242188 C 0 18.81102752685547 18.81102752685547 -7.62939453125e-06 42.01562881469727 -7.62939453125e-06 Z" stroke="none" fill="#fff"/>
      </g>
    </g>
    <g id="Grupo_1110721" data-name="Grupo 1110721" transform="translate(817.746 1978.539)">
      <g id="Grupo_1110720" data-name="Grupo 1110720" clip-path="url(#clip-path)">
        <path id="Trazado_900103" data-name="Trazado 900103" d="M11.012,70.929H3.564a1.106,1.106,0,0,1-1.106-1.106v-1.2a1.106,1.106,0,0,1,1.106-1.106h7.448a1.106,1.106,0,0,1,1.106,1.106v1.2a1.106,1.106,0,0,1-1.106,1.106" transform="translate(-1.766 -48.515)" fill="#ff3838"/>
        <path id="Trazado_900104" data-name="Trazado 900104" d="M157.99,70.929h-7.448a1.106,1.106,0,0,1-1.106-1.106v-1.2a1.106,1.106,0,0,1,1.106-1.106h7.448a1.106,1.106,0,0,1,1.106,1.106v1.2a1.106,1.106,0,0,1-1.106,1.106" transform="translate(-107.383 -48.515)" fill="#cc2643"/>
        <path id="Trazado_900105" data-name="Trazado 900105" d="M29.176,129.149H25.429a1.264,1.264,0,0,1-1.264-1.264v-3.027h6.276v3.027a1.264,1.264,0,0,1-1.264,1.264" transform="translate(-17.365 -89.721)" fill="#38457d"/>
        <path id="Trazado_900106" data-name="Trazado 900106" d="M29.983,131.547H27.242a.79.79,0,0,1-.79-.79v-1.365h4.322v1.365a.79.79,0,0,1-.79.79" transform="translate(-19.008 -92.979)" fill="#5c74b0"/>
        <path id="Trazado_900107" data-name="Trazado 900107" d="M57.06,63.841H24.165V48.877l6.606-8.931H53.63l9.061,8.931v9.48Z" transform="translate(-17.365 -28.705)" fill="#cc2643"/>
        <path id="Trazado_900108" data-name="Trazado 900108" d="M58.553,61.347H24.164V48.877l6.606-8.931H52.06l6.494,8.931Z" transform="translate(-17.364 -28.705)" fill="#de4747"/>
        <path id="Trazado_900109" data-name="Trazado 900109" d="M39.465,101.944H32.741V98.636a14.354,14.354,0,0,1,3.879.534,5.713,5.713,0,0,1,2.845,2.773" transform="translate(-23.527 -70.879)" fill="#eba738"/>
        <path id="Trazado_900110" data-name="Trazado 900110" d="M38.166,104.828H32.741V102.65A10.868,10.868,0,0,1,35.3,103a5.7,5.7,0,0,1,2.87,1.827" transform="translate(-23.527 -73.763)" fill="#ffd04f"/>
        <path id="Trazado_900111" data-name="Trazado 900111" d="M127.966,101.944h6.724V98.636a14.354,14.354,0,0,0-3.879.534,5.713,5.713,0,0,0-2.845,2.773" transform="translate(-91.955 -70.879)" fill="#eba738"/>
        <path id="Trazado_900112" data-name="Trazado 900112" d="M132.582,104.828h5.425V102.65a10.868,10.868,0,0,0-2.555.352,5.7,5.7,0,0,0-2.87,1.827" transform="translate(-95.272 -73.763)" fill="#ffd04f"/>
        <path id="Trazado_900113" data-name="Trazado 900113" d="M102.857,79.236l2.441-2.393V66.766l-1.4-1.925-14.683,14.4Z" transform="translate(-64.109 -46.594)" fill="#cc2643"/>
        <path id="Trazado_900114" data-name="Trazado 900114" d="M80.955,108.02H68.562a.941.941,0,0,1-.941-.941v-1.241a.941.941,0,0,1,.941-.941H80.955a.941.941,0,0,1,.941.941v1.241a.941.941,0,0,1-.941.941" transform="translate(-48.592 -75.378)" fill="#f2e4b5"/>
        <path id="Trazado_900115" data-name="Trazado 900115" d="M96.472,108.02a.941.941,0,0,0,.941-.941v-1.241a.941.941,0,0,0-.941-.941H92.4l-3.186,3.123Z" transform="translate(-64.109 -75.378)" fill="#d6b88d"/>
        <path id="Trazado_900116" data-name="Trazado 900116" d="M84.3,41.947l-1.455-2H67.013a9.764,9.764,0,0,0,2.9,6.278,9.428,9.428,0,0,0,8.5,2.739L89.344,59.889V48.876l-1.278-1.758L84.15,43.2a8.189,8.189,0,0,0,.155-1.256" transform="translate(-48.155 -28.705)" fill="#cc2643"/>
        <path id="Trazado_900117" data-name="Trazado 900117" d="M71.079,55.438H48.818a1.745,1.745,0,0,1-1.576-2.495l2.141-4.5H70.6l2.067,4.527a1.745,1.745,0,0,1-1.588,2.47" transform="translate(-33.824 -34.809)" fill="#57c9f2"/>
        <path id="Trazado_900118" data-name="Trazado 900118" d="M85.477,48.441H78.366l-.806.806a3.148,3.148,0,0,1-4.451,0l-.806-.806H68.685a10.056,10.056,0,0,0,2.43,3.887,9.429,9.429,0,0,0,8.5,2.739l.37.37h6.621a1.745,1.745,0,0,0,1.587-2.47l-.683-1.5-2.165-2.165a8.144,8.144,0,0,0,.126-.866" transform="translate(-49.356 -34.809)" fill="#3894cf"/>
        <path id="Trazado_900119" data-name="Trazado 900119" d="M71.138,55.946H50.828a.7.7,0,0,1-.635-1l1.843-3.876H69.305a1.086,1.086,0,0,1,.987.635l1.485,3.251a.7.7,0,0,1-.639.995" transform="translate(-36.019 -36.695)" fill="#70e5fa"/>
        <path id="Trazado_900120" data-name="Trazado 900120" d="M85.84,54.951,84.355,51.7a1.085,1.085,0,0,0-.987-.635H78.353l-.068.068a3.147,3.147,0,0,1-4.451,0l-.068-.068H69.695a10.242,10.242,0,0,0,4.451,4.88H85.2a.7.7,0,0,0,.639-.994" transform="translate(-50.082 -36.695)" fill="#57c9f2"/>
        <path id="Trazado_900121" data-name="Trazado 900121" d="M93.065,76.143h0a4.775,4.775,0,0,1,.067-6.753l20.56-20.157,6.686,6.819L99.818,76.21a4.775,4.775,0,0,1-6.753-.067" transform="translate(-65.894 -35.378)" fill="#eba738"/>
        <path id="Trazado_900122" data-name="Trazado 900122" d="M97.809,75.122h0a3.515,3.515,0,0,1,.049-4.971l19.892-19.5,4.922,5.02-19.892,19.5a3.516,3.516,0,0,1-4.971-.049" transform="translate(-69.562 -36.395)" fill="#ffd04f"/>
        <rect id="Rectángulo_404406" data-name="Rectángulo 404406" width="13.9" height="9.55" transform="translate(35.336 26.072) rotate(-44.434)" fill="#eba738"/>
        <path id="Trazado_900123" data-name="Trazado 900123" d="M202.212,16.817l-1.432-1.432.013-4.722,7.131-4.056,3.1,3.158-3.966,7.08Z" transform="translate(-144.278 -4.747)" fill="#6e82a8"/>
        <path id="Trazado_900124" data-name="Trazado 900124" d="M206.377,15.886l3.871-6.91-2.323-2.369-7.131,4.056-.013,4.722.472.472Z" transform="translate(-144.278 -4.748)" fill="#93b6cc"/>
        <rect id="Rectángulo_404407" data-name="Rectángulo 404407" width="8.86" height="2.327" transform="translate(50.554 16.469) rotate(-44.432)" fill="#6e82a8"/>
        <path id="Trazado_900125" data-name="Trazado 900125" d="M133.057,58.806l-26.1-26.1-5.746,5.746,26.1,26.1a4.063,4.063,0,0,0,5.746-5.746m-3.408,3.668a1.512,1.512,0,1,1,1.512-1.512,1.512,1.512,0,0,1-1.512,1.512" transform="translate(-72.73 -23.504)" fill="#6e82a8"/>
        <path id="Trazado_900126" data-name="Trazado 900126" d="M136.606,59.4,111.025,33.824l-3.717,3.717,25.581,25.581a2.583,2.583,0,0,0,3.653,0l.064-.064a2.583,2.583,0,0,0,0-3.653m-2.577,3.871a1.512,1.512,0,1,1,1.512-1.512,1.512,1.512,0,0,1-1.512,1.512" transform="translate(-77.11 -24.305)" fill="#93b6cc"/>
        <path id="Trazado_900127" data-name="Trazado 900127" d="M84.8,4.887a9.5,9.5,0,0,0-8.042-2.824l4.889,4.889a3.147,3.147,0,0,1,0,4.451l-1.891,1.891a3.147,3.147,0,0,1-4.451,0L70.464,8.457a9.526,9.526,0,0,0,2.843,7.918c3.582,3.582,9.056,3.913,12.229.741S88.377,8.468,84.8,4.887" transform="translate(-50.58 -1.415)" fill="#6e82a8"/>
        <path id="Trazado_900128" data-name="Trazado 900128" d="M87.74,5.877a8.277,8.277,0,0,0-7.1-2.453l4.5,4.5a3.147,3.147,0,0,1,0,4.451l-1.891,1.891a3.147,3.147,0,0,1-4.451,0l-3.54-3.54a8.573,8.573,0,0,0,2.506,5.119c3.121,3.121,7.883,3.418,10.637.665S90.861,9,87.74,5.877" transform="translate(-54.082 -2.393)" fill="#93b6cc"/>
        <path id="Trazado_900129" data-name="Trazado 900129" d="M24.109,62.081h-13.9a.64.64,0,1,0,0,1.28h2.279v2.41a.59.59,0,0,1-.589.589H8.053a.589.589,0,0,1-.589-.584l.118-14.64a1.871,1.871,0,0,0-1.869-1.87H1.87a.59.59,0,0,1-.589-.589v-.993A.589.589,0,0,1,1.87,47.1H7.291a1.872,1.872,0,0,0,1.618-.932l4.4-6.5.028-.046a.589.589,0,0,1,.514-.3h4.061a.64.64,0,1,0,0-1.281H13.848a1.871,1.871,0,0,0-1.618.932l-4.4,6.5-.029.046a.59.59,0,0,1-.514.3H1.87A1.872,1.872,0,0,0,0,47.684v.993a1.872,1.872,0,0,0,1.87,1.87H5.713a.589.589,0,0,1,.589.584L6.183,65.772a1.872,1.872,0,0,0,1.87,1.87H11.9a1.872,1.872,0,0,0,1.87-1.87v-2.41H24.109a.64.64,0,1,0,0-1.28" transform="translate(0 -27.329)" fill="#00194b"/>
        <path id="Trazado_900130" data-name="Trazado 900130" d="M48.368,48.507a.949.949,0,0,1,.843-.593h3.08a.64.64,0,0,0,0-1.281h-3.08a2.213,2.213,0,0,0-2.007,1.34L45.61,51.446a2.525,2.525,0,0,0,.165,2.427,2.2,2.2,0,0,0,1.842,1.037H63.94a.64.64,0,1,0,0-1.281H47.618a.911.911,0,0,1-.764-.448,1.267,1.267,0,0,1-.079-1.2Z" transform="translate(-32.606 -33.51)" fill="#00194b"/>
        <path id="Trazado_900131" data-name="Trazado 900131" d="M67.583,104.454h9.162a.64.64,0,1,0,0-1.281H67.583a1.667,1.667,0,0,0-1.665,1.665v1.081a1.667,1.667,0,0,0,1.665,1.665h5.911a.64.64,0,1,0,0-1.281H67.583a.385.385,0,0,1-.384-.385v-1.081a.385.385,0,0,1,.384-.384" transform="translate(-47.368 -74.139)" fill="#00194b"/>
        <path id="Trazado_900132" data-name="Trazado 900132" d="M35.771,97.918a10.987,10.987,0,0,0-3.729-.718,1.049,1.049,0,0,0-.792.277,1.1,1.1,0,0,0-.348.8v2.478a1.073,1.073,0,0,0,1.06,1.083h5.7a1.051,1.051,0,0,0,.949-.6,1.092,1.092,0,0,0-.122-1.16,6.483,6.483,0,0,0-2.715-2.162m-3.589,2.641V98.495a9.185,9.185,0,0,1,3.116.614,4.877,4.877,0,0,1,1.927,1.451Z" transform="translate(-22.206 -69.844)" fill="#00194b"/>
        <path id="Trazado_900133" data-name="Trazado 900133" d="M109.657,34.26,87.292,11.98a10.609,10.609,0,0,0-3.253-8.689,10.771,10.771,0,0,0-8.4-3.254.685.685,0,0,0-.581.447.7.7,0,0,0,.166.731L79.7,5.67c1.038,1.034,1.362,2.723.4,3.69l-2.185,2.194a2.658,2.658,0,0,1-3.692-.386L69.751,6.714a.7.7,0,0,0-.732-.164.684.684,0,0,0-.445.582,10.769,10.769,0,0,0,3.285,8.385,10.609,10.609,0,0,0,8.7,3.221l22.364,22.279c2.165,2.156,5.434,2.394,7.29.532s1.631-5.106-.559-7.289m-.348,6.385c-1.358,1.362-3.815,1.122-5.479-.535L81.26,17.625a.7.7,0,0,0-.6-.195,9.269,9.269,0,0,1-7.894-2.821,9.812,9.812,0,0,1-2.911-5.988l3.466,3.453a3.924,3.924,0,0,0,5.5.382l2.185-2.194c1.474-1.48,1.144-3.96-.4-5.5L77.136,1.309a9.819,9.819,0,0,1,6,2.889,9.271,9.271,0,0,1,2.85,7.888.7.7,0,0,0,.2.6l22.57,22.485c1.547,1.54,2,4.024.556,5.477" transform="translate(-49.252 0)" fill="#00194b"/>
        <path id="Trazado_900134" data-name="Trazado 900134" d="M106.933,95.293l-8.94,8.7a4.149,4.149,0,1,1-5.788-5.945l8.819-8.585a.64.64,0,0,0-.893-.918l-8.819,8.585a5.429,5.429,0,1,0,7.574,7.781l8.94-8.7a.641.641,0,1,0-.894-.918" transform="translate(-64.435 -63.499)" fill="#00194b"/>
        <path id="Trazado_900135" data-name="Trazado 900135" d="M179.932,7.621,177.285,4.9a1.042,1.042,0,0,0-1.268-.175l-6.763,3.908a1,1,0,0,0-.5.923l.219,4.049-5.509,5.363-1.545-1.587a1.586,1.586,0,0,0-2.241-.03l-2.662,2.592a.64.64,0,1,0,.893.918l2.662-2.592a.3.3,0,0,1,.43.006l5.364,5.51a.3.3,0,0,1-.006.43l-2.464,2.4a.64.64,0,1,0,.893.918l2.463-2.4a1.587,1.587,0,0,0,.03-2.241l-1.345-1.382,5.527-5.38,3.964.064a1.019,1.019,0,0,0,.895-.518L180.1,8.853a1.037,1.037,0,0,0-.165-1.232M164.357,19.89l5.58-5.432a1.064,1.064,0,0,0,.32-.82l-.215-3.977,6.455-3.73,2.394,2.457-3.609,6.526-3.887-.063a1.054,1.054,0,0,0-.76.3L165.044,20.6Z" transform="translate(-112.69 -3.298)" fill="#00194b"/>
        <path id="Trazado_900136" data-name="Trazado 900136" d="M111.695,96.379l-8.437,8.466a.64.64,0,0,0,.907.9l8.437-8.466a.64.64,0,1,0-.907-.9" transform="translate(-74.066 -69.121)" fill="#00194b"/>
        <path id="Trazado_900137" data-name="Trazado 900137" d="M111.592,113.749a.64.64,0,0,0,.905,0l8.489-8.519a.64.64,0,0,0-.907-.9l-8.489,8.518a.64.64,0,0,0,0,.906" transform="translate(-80.053 -74.831)" fill="#00194b"/>
        <path id="Trazado_900138" data-name="Trazado 900138" d="M197.653,126.274a2.085,2.085,0,1,0,2.086,2.085,2.088,2.088,0,0,0-2.086-2.085m0,2.89a.8.8,0,1,1,.8-.8.805.805,0,0,1-.8.8" transform="translate(-140.533 -90.739)" fill="#00194b"/>
      </g>
    </g>
  </g>
</svg>
