<svg xmlns="http://www.w3.org/2000/svg" width="1135" height="1320" viewBox="0 0 1135 1320">
  <g id="Grupo_1110732" data-name="Grupo 1110732" transform="translate(-200.333 -454)">
    <g id="Grupo_1110731" data-name="Grupo 1110731">
      <rect id="Rectángulo_404384" data-name="Rectángulo 404384" width="400" height="74" transform="translate(600.333 454)" fill="#161d79"/>
      <text id="Funcionamiento_y_partes_del_diferencial" data-name="Funcionamiento y partes del diferencial" transform="translate(650.333 497)" fill="#fff" font-size="16" font-family="SegoeUI, Segoe UI"><tspan x="0" y="0">Funcionamiento y partes del diferencial</tspan></text>
      <rect id="Rectángulo_404385" data-name="Rectángulo 404385" width="210" height="74" transform="translate(242.333 624)" fill="#d2e1f1"/>
      <text id="Diferencial_y_su_función" data-name="Diferencial y su función" transform="translate(264.333 667)" fill="#12263f" font-size="16" font-family="SegoeUI, Segoe UI"><tspan x="0" y="0">Diferencial y su función</tspan></text>
      <rect id="Rectángulo_404387" data-name="Rectángulo 404387" width="295" height="74" transform="translate(1040.333 624)" fill="#ffef90"/>
      <text id="Partes_del_diferencial_estándar_y_su_funcionamiento" data-name="Partes del diferencial estándar 
y su funcionamiento" transform="translate(1188.333 655)" fill="#12263f" font-size="16" font-family="SegoeUI, Segoe UI"><tspan x="-107.863" y="0">Partes del diferencial estándar </tspan><tspan x="-71.59" y="24">y su funcionamiento</tspan></text>
      <rect id="Rectángulo_404388" data-name="Rectángulo 404388" width="247" height="74" transform="translate(225.333 784)" fill="#dee4f0"/>
      <text id="componente_del_sistema_de_transmisión." data-name="componente del 
sistema de transmisión." transform="translate(349.333 814)" fill="#12263f" font-size="16" font-family="SegoeUI, Segoe UI"><tspan x="-60.012" y="0">componente del </tspan><tspan x="-82.453" y="24">sistema de transmisión.</tspan></text>
      <rect id="Rectángulo_404389" data-name="Rectángulo 404389" width="295" height="97" transform="translate(200.333 967)" fill="#dee4f0"/>
      <text id="_a_las_ruedas_motrices_derecha_e_izquierda_girar_a_diferentes_revoluciones." data-name=" a las ruedas motrices derecha e 
izquierda girar a diferentes 
revoluciones." transform="translate(350.333 997)" fill="#12263f" font-size="16" font-family="SegoeUI, Segoe UI"><tspan x="-115.098" y="0" xml:space="preserve"> a las ruedas motrices derecha e </tspan><tspan x="-96.711" y="24">izquierda girar a diferentes </tspan><tspan x="-46.109" y="48">revoluciones.</tspan></text>
      <rect id="Rectángulo_404390" data-name="Rectángulo 404390" width="190" height="74" transform="translate(515.333 784)" fill="#d4d7fd"/>
      <text id="Motor_delantero_y_propulsión_trasera" data-name="Motor delantero y 
propulsión trasera" transform="translate(610.333 814)" fill="#12263f" font-size="16" font-family="SegoeUI, Segoe UI"><tspan x="-66.289" y="0">Motor delantero y </tspan><tspan x="-64.07" y="24">propulsión trasera</tspan></text>
      <rect id="Rectángulo_404391" data-name="Rectángulo 404391" width="200" height="74" transform="translate(721.333 784)" fill="#d4d7fd"/>
      <text id="Motor_y_propulsión_delantera_o_trasera" data-name="Motor y propulsión 
delantera o trasera" transform="translate(816.333 814)" fill="#12263f" font-size="16" font-family="SegoeUI, Segoe UI"><tspan x="-70.383" y="0">Motor y propulsión </tspan><tspan x="-66.238" y="24">delantera o trasera</tspan></text>
      <rect id="Rectángulo_404392" data-name="Rectángulo 404392" width="180" height="74" transform="translate(935.333 784)" fill="#d4d7fd"/>
      <text id="Transmisión_4x4" data-name="Transmisión 4x4" transform="translate(1025.333 827)" fill="#12263f" font-size="16" font-family="SegoeUI, Segoe UI"><tspan x="-56.133" y="0">Transmisión 4x4</tspan></text>
      <rect id="Rectángulo_404393" data-name="Rectángulo 404393" width="190" height="74" transform="translate(515.333 967)" fill="#d4d7fd"/>
      <text id="en_la_parte_trasera_del_vehículo." data-name="en la parte trasera 
del vehículo." transform="translate(610.333 997)" fill="#12263f" font-size="16" font-family="SegoeUI, Segoe UI"><tspan x="-65.926" y="0">en la parte trasera </tspan><tspan x="-44.086" y="24">del vehículo.</tspan></text>
      <rect id="Rectángulo_404394" data-name="Rectángulo 404394" width="200" height="97" transform="translate(721.333 967)" fill="#d4d7fd"/>
      <text id="En_muchos_casos_integrado_a_la_caja_de_cambios." data-name="En muchos casos, 
integrado 
a la caja de cambios." transform="translate(821.333 997)" fill="#12263f" font-size="16" font-family="SegoeUI, Segoe UI"><tspan x="-63.848" y="0">En muchos casos, </tspan><tspan x="-36.512" y="24">integrado </tspan><tspan x="-72.625" y="48">a la caja de cambios.</tspan></text>
      <rect id="Rectángulo_404395" data-name="Rectángulo 404395" width="180" height="74" transform="translate(935.333 967)" fill="#d4d7fd"/>
      <text id="_caja_de_transmisión_y_árbol_adicional." data-name=" caja de transmisión y 
árbol adicional." transform="translate(1025.333 1000)" fill="#12263f" font-size="16" font-family="SegoeUI, Segoe UI"><tspan x="-78.355" y="0" xml:space="preserve"> caja de transmisión y </tspan><tspan x="-53.68" y="24">árbol adicional.</tspan></text>
      <rect id="Rectángulo_404396" data-name="Rectángulo 404396" width="180" height="74" transform="translate(935.333 1126)" fill="#d4d7fd"/>
      <text id="en_la_parte_trasera_y_delantera." data-name="en la parte trasera 
y delantera." transform="translate(1025.333 1159)" fill="#12263f" font-size="16" font-family="SegoeUI, Segoe UI"><tspan x="-65.926" y="0">en la parte trasera </tspan><tspan x="-40.973" y="24">y delantera.</tspan></text>
      <path id="Trazado_900063" data-name="Trazado 900063" d="M-12321.333-8857v34.573" transform="translate(12668.333 9555)" fill="none" stroke="#000" stroke-width="1"/>
      <path id="Trazado_900064" data-name="Trazado 900064" d="M-12321.333-8857v34.573" transform="translate(12668.333 9606.427)" fill="none" stroke="#000" stroke-width="1"/>
      <text id="Es_un" data-name="Es un" transform="translate(325.333 745)" fill="#12263f" font-size="16" font-family="SegoeUI, Segoe UI"><tspan x="0" y="0">es un</tspan></text>
      <path id="Trazado_900065" data-name="Trazado 900065" d="M-12321.333-8857v34.573" transform="translate(12668.333 9715)" fill="none" stroke="#000" stroke-width="1"/>
      <path id="Trazado_900066" data-name="Trazado 900066" d="M-12321.333-8857v57.572" transform="translate(12668.333 9766.427)" fill="none" stroke="#000" stroke-width="1"/>
      <text id="Que_permite" data-name="Que permite" transform="translate(308.333 905)" fill="#12263f" font-size="16" font-family="SegoeUI, Segoe UI"><tspan x="0" y="0">que permite</tspan></text>
      <path id="Trazado_900067" data-name="Trazado 900067" d="M-12321.333-8857v138.32" transform="translate(13124.333 9442.964)" fill="none" stroke="#000" stroke-width="1"/>
      <path id="Trazado_900068" data-name="Trazado 900068" d="M-12321.333-8857v34.573" transform="translate(13124.333 9606.427)" fill="none" stroke="#000" stroke-width="1"/>
      <text id="Se_compone_de" data-name="Se compone de" transform="translate(1174.333 1210)" fill="#12263f" font-size="16" font-family="SegoeUI, Segoe UI"><tspan x="0" y="0">se compone de</tspan></text>
      <path id="Trazado_900069" data-name="Trazado 900069" d="M-12076.031-8771v-17.387h404.7V-8771" transform="translate(12691.333 9555)" fill="none" stroke="#000" stroke-width="1"/>
      <path id="Trazado_900070" data-name="Trazado 900070" d="M-12076.031-8697v27.219h187.7V-8697" transform="translate(12691.333 9555)" fill="none" stroke="#000" stroke-width="1"/>
      <path id="Trazado_900071" data-name="Trazado 900071" d="M-12076.031-8594.926v-28.562h187.7v28.563" transform="translate(12691.333 9561.926)" fill="none" stroke="#000" stroke-width="1"/>
      <path id="Trazado_900072" data-name="Trazado 900072" d="M-12321.333-8857v16.977" transform="translate(13033.333 9743)" fill="none" stroke="#000" stroke-width="1"/>
      <text id="Se_encuentra" data-name="Se encuentra" transform="translate(663.333 916)" fill="#12263f" font-size="16" font-family="SegoeUI, Segoe UI"><tspan x="0" y="0">se encuentra</tspan></text>
      <path id="Trazado_900073" data-name="Trazado 900073" d="M-12321.333-8857v18.438" transform="translate(13033.333 9777)" fill="none" stroke="#000" stroke-width="1"/>
      <path id="Trazado_900074" data-name="Trazado 900074" d="M-12321.333-8857v41.177" transform="translate(13340.333 9713.936)" fill="none" stroke="#000" stroke-width="1"/>
      <path id="Trazado_900075" data-name="Trazado 900075" d="M-12321.333-8857v41.177" transform="translate(13340.333 9781.048)" fill="none" stroke="#000" stroke-width="1"/>
      <text id="Cuenta_con" data-name="Cuenta con" transform="translate(974.333 916)" fill="#12263f" font-size="16" font-family="SegoeUI, Segoe UI"><tspan x="0" y="0">cuenta con</tspan></text>
      <path id="Trazado_900076" data-name="Trazado 900076" d="M-12321.333-8857v27.042" transform="translate(13340.333 9898)" fill="none" stroke="#000" stroke-width="1"/>
      <path id="Trazado_900077" data-name="Trazado 900077" d="M-12321.333-8857v27.339" transform="translate(13340.333 9955.661)" fill="none" stroke="#000" stroke-width="1"/>
      <text id="Se_encuentra_en" data-name="Se encuentra en" transform="translate(974.333 1087.09)" fill="#12263f" font-size="16" font-family="SegoeUI, Segoe UI"><tspan x="0" y="0">se encuentra en</tspan></text>
      <rect id="Rectángulo_404397" data-name="Rectángulo 404397" width="190" height="74" transform="translate(915.333 1296)" fill="#fff5b4"/>
      <text id="Diferencial" transform="translate(1010.333 1338)" fill="#12263f" font-size="16" font-family="SegoeUI, Segoe UI"><tspan x="-37.367" y="0">Diferencial</tspan></text>
      <rect id="Rectángulo_404398" data-name="Rectángulo 404398" width="200" height="74" transform="translate(1135.333 1296)" fill="#fff5b4"/>
      <text id="Otras_partes" data-name="Otras partes" transform="translate(1230.333 1339)" fill="#12263f" font-size="16" font-family="SegoeUI, Segoe UI"><tspan x="-43.023" y="0">Otras partes</tspan></text>
      <rect id="Rectángulo_404399" data-name="Rectángulo 404399" width="190" height="74" transform="translate(915.333 1478)" fill="#fff5b4"/>
      <text id="Engranaje_de_mando_final" data-name="Engranaje de 
mando final" transform="translate(1010.333 1509)" fill="#12263f" font-size="16" font-family="SegoeUI, Segoe UI"><tspan x="-48.133" y="0">Engranaje de </tspan><tspan x="-42.055" y="24">mando final</tspan></text>
      <rect id="Rectángulo_404400" data-name="Rectángulo 404400" width="200" height="74" transform="translate(1135.333 1480)" fill="#fff5b4"/>
      <text id="El_conjunto_de_piñones" data-name="El conjunto 
de piñones" transform="translate(1230.333 1511)" fill="#12263f" font-size="16" font-family="SegoeUI, Segoe UI"><tspan x="-41.668" y="0">El conjunto </tspan><tspan x="-39.047" y="24">de piñones</tspan></text>
      <rect id="Rectángulo_404401" data-name="Rectángulo 404401" width="286" height="98" transform="translate(819.333 1676)" fill="#fff5b4"/>
      <text id="Diferencial_conformado_por_piñones_cónicos_planetarios_y_satélites" data-name="Diferencial conformado por piñones 
cónicos, planetarios 
y satélites" transform="translate(964.333 1707)" fill="#12263f" font-size="16" font-family="SegoeUI, Segoe UI"><tspan x="-129.508" y="0">Diferencial conformado por piñones </tspan><tspan x="-71.746" y="24">cónicos, planetarios </tspan><tspan x="-34.586" y="48">y satélites</tspan></text>
      <rect id="Rectángulo_404402" data-name="Rectángulo 404402" width="200" height="74" transform="translate(1135.333 1676)" fill="#fff5b4"/>
      <text id="Los_piñones_planetarios" data-name="Los piñones 
planetarios" transform="translate(1230.333 1707)" fill="#12263f" font-size="16" font-family="SegoeUI, Segoe UI"><tspan x="-44.191" y="0">Los piñones </tspan><tspan x="-39.004" y="24">planetarios</tspan></text>
      <path id="Trazado_900078" data-name="Trazado 900078" d="M-12321.333-8857v481.839" transform="translate(13542.333 9555)" fill="none" stroke="#000" stroke-width="1"/>
      <path id="Trazado_900079" data-name="Trazado 900079" d="M-12076.031-8594.926v-28.562h275.333v28.563" transform="translate(13076.031 9890.926)" fill="none" stroke="#000" stroke-width="1"/>
      <path id="Trazado_900080" data-name="Trazado 900080" d="M-12321.333-8817.317V-8857" transform="translate(13542.333 10084.755)" fill="none" stroke="#000" stroke-width="1"/>
      <path id="Trazado_900081" data-name="Trazado 900081" d="M-12321.333-8857v39.112" transform="translate(13319.833 10227)" fill="none" stroke="#000" stroke-width="1"/>
      <path id="Trazado_900082" data-name="Trazado 900082" d="M-12321.333-8857v41.177" transform="translate(13319.833 10292.048)" fill="none" stroke="#000" stroke-width="1"/>
      <text id="Conformado_por" data-name="Conformado por" transform="translate(943.333 1427)" fill="#12263f" font-size="16" font-family="SegoeUI, Segoe UI"><tspan x="0" y="0">conformado por</tspan></text>
      <path id="Trazado_900083" data-name="Trazado 900083" d="M-12321.333-8857v41.177" transform="translate(13552.333 10224.936)" fill="none" stroke="#000" stroke-width="1"/>
      <path id="Trazado_900084" data-name="Trazado 900084" d="M-12321.333-8857v41.177" transform="translate(13552.333 10292.048)" fill="none" stroke="#000" stroke-width="1"/>
      <text id="Como" transform="translate(1210 1427)" fill="#12263f" font-size="16" font-family="SegoeUI, Segoe UI"><tspan x="0" y="0">como</tspan></text>
      <path id="Trazado_900085" data-name="Trazado 900085" d="M-12076.031-8575.806v-47.683h230v47.683" transform="translate(13076.031 10251.806)" fill="none" stroke="#000" stroke-width="1"/>
      <path id="Trazado_900086" data-name="Trazado 900086" d="M-12076.031-8623.488v28.563h230v-28.562" transform="translate(13076.031 10176.243)" fill="none" stroke="#000" stroke-width="1"/>
      <path id="Trazado_900087" data-name="Trazado 900087" d="M-12321.333-8857v47" transform="translate(13439.333 10438.317)" fill="none" stroke="#000" stroke-width="1"/>
      <path id="Trazado_900088" data-name="Trazado 900088" d="M-12344.334-8931v-38.036h874V-8931" transform="translate(12691.333 9555)" fill="none" stroke="#000" stroke-width="1"/>
      <rect id="Rectángulo_404386" data-name="Rectángulo 404386" width="295" height="74" transform="translate(652.333 624)" fill="#b7bcf8"/>
      <text id="Posiciones_del_diferencial_según_tipo_de_sistema" data-name="Posiciones del diferencial 
según tipo de sistema" transform="translate(800.333 655)" fill="#12263f" font-size="16" font-family="SegoeUI, Segoe UI"><tspan x="-90.504" y="0">Posiciones del diferencial </tspan><tspan x="-77.434" y="24">según tipo de sistema</tspan></text>
      <text id="Hace_pate_de" data-name="Hace pate de" transform="translate(758.333 743)" fill="#12263f" font-size="16" font-family="SegoeUI, Segoe UI"><tspan x="0" y="0">hace pate de</tspan></text>
      <path id="Polígono_1" data-name="Polígono 1" d="M5,0l5,9H0Z" transform="translate(352.333 784) rotate(180)" fill="#070707"/>
      <path id="Polígono_2" data-name="Polígono 2" d="M5,0l5,9H0Z" transform="translate(352.333 969) rotate(180)" fill="#070707"/>
      <path id="Polígono_3" data-name="Polígono 3" d="M5,0l5,9H0Z" transform="translate(620.333 969) rotate(180)" fill="#070707"/>
      <path id="Polígono_4" data-name="Polígono 4" d="M5,0l5,9H0Z" transform="translate(808.333 969) rotate(180)" fill="#070707"/>
      <path id="Polígono_5" data-name="Polígono 5" d="M5,0l5,9H0Z" transform="translate(808.333 784) rotate(180)" fill="#070707"/>
      <path id="Polígono_6" data-name="Polígono 6" d="M5,0l5,9H0Z" transform="translate(620.333 784) rotate(180)" fill="#070707"/>
      <path id="Polígono_7" data-name="Polígono 7" d="M5,0l5,9H0Z" transform="translate(1025.333 784) rotate(180)" fill="#070707"/>
      <path id="Polígono_8" data-name="Polígono 8" d="M5,0l5,9H0Z" transform="translate(1024.333 967) rotate(180)" fill="#070707"/>
      <path id="Polígono_9" data-name="Polígono 9" d="M5,0l5,9H0Z" transform="translate(1005.333 1297) rotate(180)" fill="#070707"/>
      <path id="Polígono_10" data-name="Polígono 10" d="M5,0l5,9H0Z" transform="translate(1280.333 1297) rotate(180)" fill="#070707"/>
      <path id="Polígono_11" data-name="Polígono 11" d="M5,0l5,9H0Z" transform="translate(1003.333 1478) rotate(180)" fill="#070707"/>
      <path id="Polígono_12" data-name="Polígono 12" d="M5,0l5,9H0Z" transform="translate(1236.333 1478) rotate(180)" fill="#070707"/>
      <path id="Polígono_13" data-name="Polígono 13" d="M5,0l5,9H0Z" transform="translate(1005.333 1676) rotate(180)" fill="#070707"/>
      <path id="Polígono_14" data-name="Polígono 14" d="M5,0l5,9H0Z" transform="translate(1235.333 1676) rotate(180)" fill="#070707"/>
    </g>
  </g>
</svg>
